%FSLAX25Y25*%
%MOIN*%
G70*
G01*
G75*
G04 Layer_Color=65535*
%ADD10R,0.05512X0.03543*%
%ADD11R,0.03543X0.05512*%
%ADD12O,0.05512X0.01181*%
%ADD13O,0.01181X0.05512*%
%ADD14O,0.02362X0.05906*%
%ADD15R,0.02362X0.03937*%
%ADD16R,0.01575X0.03347*%
%ADD17R,0.03150X0.05512*%
%ADD18R,0.05512X0.03150*%
%ADD19C,0.01000*%
%ADD20C,0.02000*%
%ADD21C,0.02500*%
%ADD22C,0.03937*%
%ADD23C,0.12598*%
%ADD24R,0.06000X0.06000*%
%ADD25C,0.06000*%
%ADD26O,0.05906X0.09843*%
G04:AMPARAMS|DCode=27|XSize=157.48mil|YSize=78.74mil|CornerRadius=19.69mil|HoleSize=0mil|Usage=FLASHONLY|Rotation=0.000|XOffset=0mil|YOffset=0mil|HoleType=Round|Shape=RoundedRectangle|*
%AMROUNDEDRECTD27*
21,1,0.15748,0.03937,0,0,0.0*
21,1,0.11811,0.07874,0,0,0.0*
1,1,0.03937,0.05906,-0.01969*
1,1,0.03937,-0.05906,-0.01969*
1,1,0.03937,-0.05906,0.01969*
1,1,0.03937,0.05906,0.01969*
%
%ADD27ROUNDEDRECTD27*%
%ADD28C,0.05906*%
%ADD29C,0.04000*%
%ADD30C,0.00984*%
%ADD31C,0.02362*%
%ADD32C,0.01969*%
%ADD33C,0.00787*%
%ADD34C,0.00600*%
%ADD35C,0.00500*%
G36*
X244094Y74610D02*
X240682D01*
X240635Y74603D01*
X240572Y74595D01*
X240494Y74563D01*
X240424Y74524D01*
X240361Y74462D01*
X240314Y74376D01*
X240307Y74321D01*
X240299Y74259D01*
Y74251D01*
Y74243D01*
X240307Y74196D01*
X240330Y74142D01*
X240377Y74087D01*
X240392Y74079D01*
X240432Y74056D01*
X240502Y74025D01*
X240596Y73985D01*
X243431Y73056D01*
X243446Y73048D01*
X243485Y73040D01*
X243548Y73009D01*
X243626Y72970D01*
X243712Y72923D01*
X243798Y72853D01*
X243884Y72775D01*
X243962Y72673D01*
X243969Y72658D01*
X243993Y72627D01*
X244016Y72564D01*
X244048Y72486D01*
X244087Y72392D01*
X244110Y72275D01*
X244133Y72158D01*
X244141Y72025D01*
Y72017D01*
Y71986D01*
X244133Y71931D01*
Y71877D01*
X244126Y71799D01*
X244110Y71721D01*
X244071Y71557D01*
Y71549D01*
X244055Y71518D01*
X244040Y71478D01*
X244016Y71432D01*
X243946Y71307D01*
X243845Y71182D01*
X243837Y71174D01*
X243821Y71158D01*
X243790Y71127D01*
X243743Y71096D01*
X243696Y71049D01*
X243634Y71010D01*
X243493Y70932D01*
X243485D01*
X243454Y70916D01*
X243415Y70908D01*
X243353Y70893D01*
X243282Y70877D01*
X243204Y70862D01*
X243118Y70854D01*
X243024Y70846D01*
X240682D01*
X240635Y70838D01*
X240572Y70830D01*
X240494Y70807D01*
X240424Y70760D01*
X240361Y70697D01*
X240314Y70619D01*
X240307Y70565D01*
X240299Y70502D01*
Y70495D01*
Y70487D01*
X240307Y70440D01*
X240330Y70385D01*
X240377Y70338D01*
X240392Y70330D01*
X240432Y70307D01*
X240502Y70268D01*
X240596Y70229D01*
X244094Y69003D01*
Y68097D01*
X240205Y69487D01*
X240197D01*
X240190Y69495D01*
X240150Y69510D01*
X240088Y69542D01*
X240010Y69581D01*
X239932Y69635D01*
X239846Y69698D01*
X239760Y69784D01*
X239682Y69877D01*
X239674Y69893D01*
X239651Y69924D01*
X239619Y69987D01*
X239588Y70065D01*
X239557Y70159D01*
X239526Y70268D01*
X239502Y70385D01*
X239494Y70518D01*
Y70526D01*
Y70557D01*
X239502Y70604D01*
Y70666D01*
X239518Y70737D01*
X239533Y70815D01*
X239549Y70893D01*
X239580Y70979D01*
Y70986D01*
X239596Y71018D01*
X239612Y71057D01*
X239635Y71112D01*
X239705Y71229D01*
X239807Y71354D01*
X239815Y71361D01*
X239830Y71385D01*
X239861Y71408D01*
X239900Y71447D01*
X239955Y71486D01*
X240018Y71533D01*
X240080Y71572D01*
X240158Y71611D01*
X240166Y71619D01*
X240197Y71627D01*
X240236Y71643D01*
X240291Y71658D01*
X240361Y71674D01*
X240439Y71689D01*
X240525Y71705D01*
X242946D01*
X242993Y71713D01*
X243056Y71721D01*
X243126Y71744D01*
X243204Y71791D01*
X243267Y71846D01*
X243314Y71931D01*
X243321Y71978D01*
X243329Y72041D01*
Y72049D01*
Y72057D01*
X243321Y72103D01*
X243298Y72166D01*
X243259Y72213D01*
X243243Y72220D01*
X243204Y72252D01*
X243142Y72283D01*
X243056Y72322D01*
X240205Y73244D01*
X240197D01*
X240190Y73251D01*
X240150Y73267D01*
X240088Y73290D01*
X240010Y73337D01*
X239932Y73384D01*
X239846Y73454D01*
X239760Y73540D01*
X239682Y73634D01*
X239674Y73650D01*
X239651Y73689D01*
X239619Y73743D01*
X239588Y73822D01*
X239557Y73915D01*
X239526Y74025D01*
X239502Y74150D01*
X239494Y74274D01*
Y74282D01*
Y74313D01*
X239502Y74360D01*
Y74423D01*
X239518Y74493D01*
X239533Y74571D01*
X239549Y74649D01*
X239580Y74735D01*
Y74743D01*
X239596Y74774D01*
X239612Y74813D01*
X239635Y74868D01*
X239705Y74985D01*
X239807Y75110D01*
X239815Y75118D01*
X239830Y75141D01*
X239861Y75165D01*
X239900Y75204D01*
X239955Y75243D01*
X240018Y75290D01*
X240080Y75329D01*
X240158Y75368D01*
X240166Y75376D01*
X240197Y75384D01*
X240236Y75399D01*
X240291Y75415D01*
X240361Y75430D01*
X240439Y75446D01*
X240525Y75462D01*
X244094D01*
Y74610D01*
D02*
G37*
G36*
X242868Y80187D02*
X242931Y80179D01*
X243001Y80171D01*
X243087Y80155D01*
X243173Y80124D01*
X243267Y80093D01*
X243274Y80085D01*
X243306Y80077D01*
X243353Y80054D01*
X243407Y80023D01*
X243470Y79984D01*
X243540Y79929D01*
X243618Y79874D01*
X243688Y79812D01*
X243696Y79804D01*
X243720Y79781D01*
X243751Y79742D01*
X243790Y79695D01*
X243837Y79640D01*
X243891Y79570D01*
X243938Y79492D01*
X243985Y79406D01*
X243993Y79398D01*
X244001Y79367D01*
X244016Y79320D01*
X244040Y79257D01*
X244063Y79187D01*
X244079Y79109D01*
X244087Y79015D01*
X244094Y78922D01*
Y78140D01*
Y78133D01*
Y78117D01*
Y78086D01*
X244087Y78054D01*
Y78008D01*
X244079Y77945D01*
X244055Y77812D01*
X244024Y77656D01*
X243977Y77484D01*
X243899Y77289D01*
X243806Y77102D01*
X243688Y76907D01*
X243618Y76805D01*
X243532Y76719D01*
X243446Y76625D01*
X243353Y76539D01*
X243243Y76461D01*
X243126Y76383D01*
X243001Y76313D01*
X242868Y76250D01*
X242720Y76196D01*
X242564Y76149D01*
X242392Y76110D01*
X242212Y76079D01*
X242017Y76063D01*
X241806Y76055D01*
X241736D01*
X241689Y76063D01*
X241642D01*
X241580Y76071D01*
X241509Y76079D01*
X241431Y76086D01*
X241260Y76118D01*
X241072Y76165D01*
X240861Y76227D01*
X240650Y76313D01*
X240439Y76430D01*
X240229Y76563D01*
X240135Y76641D01*
X240041Y76735D01*
X239947Y76828D01*
X239869Y76938D01*
X239791Y77047D01*
X239721Y77172D01*
X239658Y77305D01*
X239612Y77453D01*
X239565Y77609D01*
X239533Y77773D01*
X239518Y77953D01*
X239510Y78140D01*
Y79812D01*
X240314D01*
Y77937D01*
Y77930D01*
Y77914D01*
Y77883D01*
X240322Y77851D01*
Y77805D01*
X240330Y77750D01*
X240361Y77633D01*
X240400Y77500D01*
X240463Y77359D01*
X240557Y77235D01*
X240611Y77172D01*
X240674Y77117D01*
X240682D01*
X240689Y77109D01*
X240713Y77094D01*
X240744Y77078D01*
X240783Y77055D01*
X240830Y77031D01*
X240885Y77008D01*
X240947Y76985D01*
X241025Y76961D01*
X241111Y76938D01*
X241205Y76914D01*
X241306Y76891D01*
X241416Y76875D01*
X241541Y76860D01*
X241673Y76852D01*
X241877D01*
X241955Y76860D01*
X242048Y76867D01*
X242158Y76883D01*
X242283Y76907D01*
X242415Y76946D01*
X242556Y76985D01*
X242696Y77047D01*
X242829Y77117D01*
X242954Y77203D01*
X243064Y77305D01*
X243157Y77430D01*
X243235Y77570D01*
X243282Y77742D01*
X243290Y77828D01*
X243298Y77930D01*
Y78890D01*
Y78898D01*
Y78906D01*
X243290Y78953D01*
X243274Y79015D01*
X243251Y79085D01*
Y79093D01*
X243243Y79101D01*
X243220Y79140D01*
X243181Y79195D01*
X243134Y79242D01*
X243118Y79257D01*
X243079Y79281D01*
X243024Y79320D01*
X242954Y79351D01*
X242946D01*
X242939Y79359D01*
X242892Y79374D01*
X242822Y79382D01*
X242736Y79390D01*
X242696D01*
X242657Y79382D01*
X242603Y79374D01*
X242548Y79359D01*
X242486Y79328D01*
X242423Y79296D01*
X242361Y79250D01*
X242353Y79242D01*
X242337Y79226D01*
X242306Y79195D01*
X242275Y79156D01*
X242251Y79101D01*
X242220Y79039D01*
X242204Y78968D01*
X242197Y78890D01*
Y78164D01*
X241384D01*
Y78929D01*
Y78945D01*
Y78976D01*
X241392Y79023D01*
X241400Y79093D01*
X241408Y79164D01*
X241431Y79250D01*
X241455Y79335D01*
X241494Y79421D01*
X241502Y79429D01*
X241509Y79460D01*
X241533Y79507D01*
X241564Y79562D01*
X241611Y79624D01*
X241658Y79695D01*
X241712Y79757D01*
X241783Y79827D01*
X241791Y79835D01*
X241814Y79859D01*
X241853Y79890D01*
X241908Y79929D01*
X241970Y79968D01*
X242040Y80015D01*
X242126Y80054D01*
X242220Y80093D01*
X242228Y80101D01*
X242267Y80109D01*
X242314Y80124D01*
X242384Y80148D01*
X242462Y80163D01*
X242556Y80179D01*
X242665Y80187D01*
X242775Y80194D01*
X242814D01*
X242868Y80187D01*
D02*
G37*
G36*
X244696Y60826D02*
Y60256D01*
X239354Y63020D01*
Y63590D01*
X244696Y60826D01*
D02*
G37*
G36*
X244094Y65324D02*
Y65316D01*
Y65309D01*
Y65285D01*
Y65262D01*
X244087Y65184D01*
X244079Y65090D01*
X244071Y64981D01*
X244048Y64871D01*
X244024Y64754D01*
X243985Y64645D01*
X243977Y64629D01*
X243962Y64598D01*
X243938Y64551D01*
X243899Y64489D01*
X243860Y64418D01*
X243806Y64340D01*
X243743Y64270D01*
X243673Y64200D01*
X243665Y64192D01*
X243641Y64168D01*
X243595Y64145D01*
X243548Y64106D01*
X243478Y64067D01*
X243407Y64020D01*
X243321Y63981D01*
X243235Y63950D01*
X243228D01*
X243196Y63942D01*
X243142Y63926D01*
X243079Y63918D01*
X243009Y63903D01*
X242923Y63887D01*
X242736Y63879D01*
X242689D01*
X242634Y63887D01*
X242564Y63895D01*
X242486Y63903D01*
X242400Y63926D01*
X242298Y63950D01*
X242204Y63989D01*
X242197Y63996D01*
X242158Y64012D01*
X242111Y64043D01*
X242056Y64082D01*
X241994Y64137D01*
X241923Y64200D01*
X241853Y64278D01*
X241791Y64371D01*
X241783Y64364D01*
X241759Y64325D01*
X241728Y64278D01*
X241673Y64223D01*
X241619Y64161D01*
X241541Y64098D01*
X241462Y64036D01*
X241369Y63989D01*
X241353Y63981D01*
X241322Y63973D01*
X241275Y63958D01*
X241205Y63934D01*
X241127Y63911D01*
X241041Y63895D01*
X240955Y63887D01*
X240861Y63879D01*
X240814D01*
X240752Y63887D01*
X240682D01*
X240596Y63903D01*
X240502Y63918D01*
X240408Y63934D01*
X240314Y63965D01*
X240307Y63973D01*
X240275Y63981D01*
X240229Y64004D01*
X240166Y64028D01*
X240096Y64067D01*
X240025Y64114D01*
X239955Y64161D01*
X239885Y64223D01*
X239877Y64231D01*
X239854Y64254D01*
X239822Y64293D01*
X239783Y64348D01*
X239737Y64411D01*
X239690Y64489D01*
X239651Y64574D01*
X239612Y64676D01*
X239604Y64692D01*
X239596Y64723D01*
X239580Y64785D01*
X239557Y64864D01*
X239541Y64957D01*
X239526Y65066D01*
X239518Y65192D01*
X239510Y65324D01*
Y67613D01*
X240314D01*
Y65199D01*
Y65192D01*
Y65184D01*
X240322Y65137D01*
X240330Y65066D01*
X240361Y64996D01*
Y64988D01*
X240369Y64981D01*
X240392Y64942D01*
X240424Y64887D01*
X240478Y64832D01*
X240494Y64824D01*
X240525Y64793D01*
X240580Y64754D01*
X240650Y64715D01*
X240658D01*
X240666Y64707D01*
X240713Y64699D01*
X240775Y64684D01*
X240845Y64676D01*
X240885D01*
X240924Y64684D01*
X240978Y64692D01*
X241041Y64715D01*
X241103Y64739D01*
X241166Y64777D01*
X241228Y64824D01*
X241236Y64832D01*
X241252Y64848D01*
X241275Y64887D01*
X241306Y64926D01*
X241338Y64981D01*
X241361Y65051D01*
X241377Y65121D01*
X241384Y65207D01*
Y67613D01*
X242197D01*
Y65199D01*
Y65192D01*
Y65184D01*
X242204Y65137D01*
X242212Y65066D01*
X242244Y64996D01*
Y64988D01*
X242251Y64981D01*
X242275Y64942D01*
X242306Y64887D01*
X242353Y64832D01*
X242369Y64824D01*
X242400Y64793D01*
X242454Y64754D01*
X242525Y64715D01*
X242532D01*
X242540Y64707D01*
X242587Y64699D01*
X242650Y64684D01*
X242728Y64676D01*
X242767D01*
X242814Y64684D01*
X242876Y64692D01*
X242939Y64715D01*
X243009Y64739D01*
X243079Y64777D01*
X243142Y64824D01*
X243149Y64832D01*
X243165Y64848D01*
X243189Y64887D01*
X243220Y64926D01*
X243251Y64981D01*
X243274Y65051D01*
X243290Y65121D01*
X243298Y65207D01*
Y67613D01*
X244094D01*
Y65324D01*
D02*
G37*
G36*
X242868Y86763D02*
X242923D01*
X242986Y86747D01*
X243134Y86724D01*
X243298Y86677D01*
X243462Y86607D01*
X243540Y86567D01*
X243618Y86513D01*
X243688Y86458D01*
X243759Y86388D01*
Y86380D01*
X243774Y86372D01*
X243790Y86349D01*
X243813Y86317D01*
X243837Y86278D01*
X243868Y86232D01*
X243891Y86177D01*
X243923Y86115D01*
X243954Y86036D01*
X243985Y85958D01*
X244016Y85872D01*
X244040Y85779D01*
X244079Y85560D01*
X244087Y85443D01*
X244094Y85318D01*
Y82959D01*
X243298D01*
Y85466D01*
Y85474D01*
Y85505D01*
X243290Y85544D01*
X243274Y85591D01*
X243259Y85646D01*
X243228Y85708D01*
X243189Y85763D01*
X243134Y85818D01*
X243126Y85826D01*
X243103Y85841D01*
X243071Y85865D01*
X243024Y85888D01*
X242962Y85911D01*
X242900Y85935D01*
X242822Y85950D01*
X242736Y85958D01*
X242696D01*
X242657Y85950D01*
X242603Y85943D01*
X242548Y85927D01*
X242486Y85896D01*
X242423Y85865D01*
X242361Y85818D01*
X242353Y85810D01*
X242337Y85794D01*
X242306Y85763D01*
X242275Y85724D01*
X242251Y85677D01*
X242220Y85615D01*
X242204Y85544D01*
X242197Y85466D01*
Y84178D01*
Y84170D01*
Y84162D01*
Y84139D01*
Y84115D01*
X242189Y84037D01*
X242181Y83943D01*
X242165Y83834D01*
X242150Y83725D01*
X242119Y83607D01*
X242079Y83498D01*
X242072Y83482D01*
X242056Y83451D01*
X242033Y83404D01*
X241994Y83342D01*
X241947Y83272D01*
X241892Y83193D01*
X241830Y83123D01*
X241759Y83053D01*
X241752Y83045D01*
X241728Y83022D01*
X241681Y82998D01*
X241634Y82959D01*
X241572Y82920D01*
X241494Y82873D01*
X241416Y82834D01*
X241330Y82803D01*
X241322D01*
X241291Y82795D01*
X241244Y82780D01*
X241181Y82772D01*
X241111Y82756D01*
X241033Y82740D01*
X240861Y82733D01*
X240814D01*
X240760Y82740D01*
X240689D01*
X240611Y82748D01*
X240525Y82764D01*
X240338Y82811D01*
X240330Y82819D01*
X240299Y82826D01*
X240252Y82842D01*
X240190Y82873D01*
X240127Y82904D01*
X240057Y82951D01*
X239979Y82998D01*
X239908Y83061D01*
X239900Y83069D01*
X239877Y83092D01*
X239846Y83131D01*
X239799Y83186D01*
X239752Y83248D01*
X239705Y83326D01*
X239658Y83412D01*
X239619Y83514D01*
X239612Y83529D01*
X239604Y83561D01*
X239588Y83623D01*
X239565Y83701D01*
X239541Y83795D01*
X239526Y83912D01*
X239518Y84037D01*
X239510Y84178D01*
Y86466D01*
X240314D01*
Y84053D01*
Y84045D01*
Y84037D01*
X240322Y83990D01*
X240330Y83920D01*
X240361Y83850D01*
Y83842D01*
X240369Y83834D01*
X240392Y83795D01*
X240424Y83740D01*
X240478Y83686D01*
X240494Y83678D01*
X240525Y83647D01*
X240580Y83607D01*
X240650Y83568D01*
X240658D01*
X240666Y83561D01*
X240713Y83553D01*
X240775Y83537D01*
X240845Y83529D01*
X240885D01*
X240924Y83537D01*
X240978Y83545D01*
X241041Y83568D01*
X241103Y83592D01*
X241166Y83631D01*
X241228Y83678D01*
X241236Y83686D01*
X241252Y83709D01*
X241275Y83740D01*
X241306Y83787D01*
X241338Y83842D01*
X241361Y83904D01*
X241377Y83982D01*
X241384Y84060D01*
Y85326D01*
Y85334D01*
Y85357D01*
Y85388D01*
X241392Y85435D01*
Y85490D01*
X241400Y85560D01*
X241424Y85708D01*
X241462Y85880D01*
X241525Y86052D01*
X241611Y86224D01*
X241658Y86302D01*
X241720Y86380D01*
Y86388D01*
X241736Y86396D01*
X241759Y86419D01*
X241783Y86443D01*
X241822Y86474D01*
X241861Y86505D01*
X241915Y86536D01*
X241970Y86575D01*
X242040Y86614D01*
X242111Y86646D01*
X242197Y86677D01*
X242290Y86708D01*
X242384Y86731D01*
X242493Y86755D01*
X242603Y86763D01*
X242728Y86770D01*
X242822D01*
X242868Y86763D01*
D02*
G37*
G36*
X244094Y94588D02*
Y94581D01*
Y94573D01*
Y94549D01*
Y94526D01*
X244087Y94448D01*
X244079Y94354D01*
X244071Y94245D01*
X244048Y94135D01*
X244024Y94018D01*
X243985Y93909D01*
X243977Y93893D01*
X243962Y93862D01*
X243938Y93815D01*
X243899Y93753D01*
X243860Y93682D01*
X243806Y93604D01*
X243743Y93534D01*
X243673Y93464D01*
X243665Y93456D01*
X243641Y93432D01*
X243595Y93409D01*
X243548Y93370D01*
X243478Y93331D01*
X243407Y93284D01*
X243321Y93245D01*
X243235Y93214D01*
X243228D01*
X243196Y93206D01*
X243142Y93190D01*
X243079Y93182D01*
X243009Y93167D01*
X242923Y93151D01*
X242736Y93143D01*
X242689D01*
X242634Y93151D01*
X242564Y93159D01*
X242486Y93167D01*
X242400Y93190D01*
X242298Y93214D01*
X242204Y93253D01*
X242197Y93261D01*
X242158Y93276D01*
X242111Y93308D01*
X242056Y93347D01*
X241994Y93401D01*
X241923Y93464D01*
X241853Y93542D01*
X241791Y93635D01*
X241783Y93628D01*
X241759Y93589D01*
X241728Y93542D01*
X241673Y93487D01*
X241619Y93425D01*
X241541Y93362D01*
X241462Y93300D01*
X241369Y93253D01*
X241353Y93245D01*
X241322Y93237D01*
X241275Y93222D01*
X241205Y93198D01*
X241127Y93175D01*
X241041Y93159D01*
X240955Y93151D01*
X240861Y93143D01*
X240814D01*
X240752Y93151D01*
X240682D01*
X240596Y93167D01*
X240502Y93182D01*
X240408Y93198D01*
X240314Y93229D01*
X240307Y93237D01*
X240275Y93245D01*
X240229Y93268D01*
X240166Y93292D01*
X240096Y93331D01*
X240025Y93378D01*
X239955Y93425D01*
X239885Y93487D01*
X239877Y93495D01*
X239854Y93518D01*
X239822Y93557D01*
X239783Y93612D01*
X239737Y93674D01*
X239690Y93753D01*
X239651Y93839D01*
X239612Y93940D01*
X239604Y93956D01*
X239596Y93987D01*
X239580Y94049D01*
X239557Y94128D01*
X239541Y94221D01*
X239526Y94331D01*
X239518Y94455D01*
X239510Y94588D01*
Y96877D01*
X240314D01*
Y94463D01*
Y94455D01*
Y94448D01*
X240322Y94401D01*
X240330Y94331D01*
X240361Y94260D01*
Y94253D01*
X240369Y94245D01*
X240392Y94206D01*
X240424Y94151D01*
X240478Y94096D01*
X240494Y94089D01*
X240525Y94057D01*
X240580Y94018D01*
X240650Y93979D01*
X240658D01*
X240666Y93971D01*
X240713Y93963D01*
X240775Y93948D01*
X240845Y93940D01*
X240885D01*
X240924Y93948D01*
X240978Y93956D01*
X241041Y93979D01*
X241103Y94003D01*
X241166Y94042D01*
X241228Y94089D01*
X241236Y94096D01*
X241252Y94112D01*
X241275Y94151D01*
X241306Y94190D01*
X241338Y94245D01*
X241361Y94315D01*
X241377Y94385D01*
X241384Y94471D01*
Y96877D01*
X242197D01*
Y94463D01*
Y94455D01*
Y94448D01*
X242204Y94401D01*
X242212Y94331D01*
X242244Y94260D01*
Y94253D01*
X242251Y94245D01*
X242275Y94206D01*
X242306Y94151D01*
X242353Y94096D01*
X242369Y94089D01*
X242400Y94057D01*
X242454Y94018D01*
X242525Y93979D01*
X242532D01*
X242540Y93971D01*
X242587Y93963D01*
X242650Y93948D01*
X242728Y93940D01*
X242767D01*
X242814Y93948D01*
X242876Y93956D01*
X242939Y93979D01*
X243009Y94003D01*
X243079Y94042D01*
X243142Y94089D01*
X243149Y94096D01*
X243165Y94112D01*
X243189Y94151D01*
X243220Y94190D01*
X243251Y94245D01*
X243274Y94315D01*
X243290Y94385D01*
X243298Y94471D01*
Y96877D01*
X244094D01*
Y94588D01*
D02*
G37*
G36*
Y99563D02*
Y99555D01*
Y99540D01*
Y99516D01*
Y99477D01*
X244087Y99438D01*
Y99384D01*
X244079Y99266D01*
X244063Y99126D01*
X244040Y98978D01*
X244009Y98829D01*
X243962Y98681D01*
Y98673D01*
X243954Y98665D01*
X243938Y98618D01*
X243907Y98548D01*
X243860Y98454D01*
X243806Y98353D01*
X243735Y98251D01*
X243657Y98142D01*
X243563Y98040D01*
X243548Y98032D01*
X243517Y98001D01*
X243462Y97954D01*
X243384Y97900D01*
X243290Y97837D01*
X243181Y97775D01*
X243064Y97712D01*
X242931Y97658D01*
X242923D01*
X242915Y97650D01*
X242868Y97642D01*
X242790Y97619D01*
X242689Y97595D01*
X242571Y97572D01*
X242431Y97556D01*
X242275Y97540D01*
X242111Y97533D01*
X239510D01*
Y98345D01*
X242173D01*
X242212Y98353D01*
X242259D01*
X242314Y98361D01*
X242439Y98384D01*
X242579Y98423D01*
X242728Y98478D01*
X242868Y98556D01*
X242993Y98657D01*
X243009Y98673D01*
X243040Y98720D01*
X243087Y98790D01*
X243142Y98892D01*
X243204Y99017D01*
X243251Y99165D01*
X243282Y99345D01*
X243298Y99540D01*
Y100938D01*
X244094D01*
Y99563D01*
D02*
G37*
G36*
Y90285D02*
X242197D01*
Y88161D01*
X244094D01*
Y87348D01*
X239510D01*
Y88161D01*
X241384D01*
Y90285D01*
X239510D01*
Y91089D01*
X244094D01*
Y90285D01*
D02*
G37*
G36*
Y91746D02*
X239510D01*
Y92558D01*
X244094D01*
Y91746D01*
D02*
G37*
G36*
X250617Y55340D02*
X250656Y55335D01*
X250700Y55330D01*
X250748Y55325D01*
X250861Y55306D01*
X250983Y55277D01*
X251110Y55233D01*
X251246Y55179D01*
X251383Y55111D01*
X251510Y55023D01*
X251573Y54974D01*
X251632Y54915D01*
X251690Y54857D01*
X251744Y54789D01*
X251793Y54715D01*
X251837Y54637D01*
X251876Y54554D01*
X251905Y54462D01*
X251934Y54364D01*
X251954Y54261D01*
X251964Y54149D01*
X251969Y54027D01*
Y53808D01*
Y53803D01*
Y53793D01*
Y53773D01*
X251964Y53749D01*
Y53720D01*
X251959Y53686D01*
X251944Y53603D01*
X251925Y53500D01*
X251890Y53388D01*
X251847Y53271D01*
X251788Y53149D01*
X251710Y53022D01*
X251666Y52964D01*
X251617Y52905D01*
X251559Y52846D01*
X251500Y52793D01*
X251432Y52739D01*
X251359Y52690D01*
X251280Y52646D01*
X251193Y52607D01*
X251100Y52573D01*
X251002Y52544D01*
X250895Y52519D01*
X250778Y52500D01*
X250656Y52490D01*
X250524Y52485D01*
X250475D01*
X250446Y52490D01*
X250417D01*
X250378Y52495D01*
X250334Y52500D01*
X250285Y52505D01*
X250178Y52529D01*
X250056Y52558D01*
X249924Y52597D01*
X249792Y52651D01*
X249660Y52724D01*
X249529Y52812D01*
X249465Y52861D01*
X249407Y52920D01*
X249353Y52978D01*
X249299Y53046D01*
X249250Y53120D01*
X249206Y53198D01*
X249167Y53281D01*
X249138Y53373D01*
X249109Y53471D01*
X249089Y53574D01*
X249079Y53686D01*
X249075Y53808D01*
Y54022D01*
Y54027D01*
Y54037D01*
Y54057D01*
X249079Y54081D01*
Y54110D01*
X249084Y54144D01*
X249099Y54227D01*
X249119Y54325D01*
X249148Y54437D01*
X249197Y54559D01*
X249255Y54681D01*
X249328Y54803D01*
X249377Y54862D01*
X249426Y54920D01*
X249480Y54979D01*
X249543Y55033D01*
X249607Y55086D01*
X249680Y55135D01*
X249758Y55179D01*
X249846Y55218D01*
X249938Y55257D01*
X250036Y55286D01*
X250143Y55311D01*
X250256Y55330D01*
X250378Y55340D01*
X250509Y55345D01*
X250588D01*
X250617Y55340D01*
D02*
G37*
G36*
X250036Y57995D02*
X250085Y57990D01*
X250138Y57980D01*
X250251Y57951D01*
X250256D01*
X250275Y57941D01*
X250304Y57931D01*
X250343Y57912D01*
X250387Y57892D01*
X250436Y57863D01*
X250485Y57829D01*
X250534Y57790D01*
X250539Y57785D01*
X250553Y57770D01*
X250578Y57746D01*
X250602Y57712D01*
X250636Y57668D01*
X250665Y57619D01*
X250700Y57560D01*
X250729Y57497D01*
X250734Y57487D01*
X250739Y57468D01*
X250753Y57429D01*
X250763Y57380D01*
X250778Y57316D01*
X250792Y57243D01*
X250797Y57160D01*
X250802Y57072D01*
Y56209D01*
X251969D01*
Y55623D01*
X249075D01*
Y57072D01*
Y57077D01*
Y57082D01*
Y57112D01*
X249079Y57155D01*
X249084Y57214D01*
X249094Y57277D01*
X249104Y57351D01*
X249124Y57419D01*
X249148Y57487D01*
X249153Y57497D01*
X249163Y57516D01*
X249177Y57551D01*
X249197Y57590D01*
X249226Y57639D01*
X249255Y57687D01*
X249294Y57736D01*
X249338Y57780D01*
X249343Y57785D01*
X249358Y57800D01*
X249382Y57819D01*
X249416Y57843D01*
X249455Y57873D01*
X249504Y57902D01*
X249553Y57926D01*
X249611Y57946D01*
X249616Y57951D01*
X249641Y57956D01*
X249670Y57965D01*
X249709Y57975D01*
X249763Y57985D01*
X249816Y57990D01*
X249880Y58000D01*
X249997D01*
X250036Y57995D01*
D02*
G37*
G36*
X251173Y49796D02*
X251212Y49791D01*
X251251Y49787D01*
X251349Y49772D01*
X251451Y49743D01*
X251559Y49699D01*
X251612Y49670D01*
X251661Y49635D01*
X251710Y49596D01*
X251754Y49552D01*
Y49547D01*
X251764Y49543D01*
X251773Y49528D01*
X251788Y49508D01*
X251803Y49479D01*
X251822Y49450D01*
X251842Y49416D01*
X251861Y49372D01*
X251881Y49328D01*
X251900Y49274D01*
X251920Y49220D01*
X251934Y49157D01*
X251959Y49020D01*
X251964Y48942D01*
X251969Y48864D01*
Y47381D01*
X251397D01*
Y48962D01*
Y48967D01*
Y48981D01*
X251393Y49001D01*
X251388Y49025D01*
X251378Y49055D01*
X251363Y49084D01*
X251344Y49113D01*
X251315Y49142D01*
X251310Y49147D01*
X251300Y49157D01*
X251280Y49167D01*
X251256Y49182D01*
X251222Y49196D01*
X251183Y49211D01*
X251144Y49216D01*
X251095Y49220D01*
X251076D01*
X251051Y49216D01*
X251027Y49211D01*
X250992Y49201D01*
X250958Y49186D01*
X250924Y49167D01*
X250890Y49142D01*
X250885Y49137D01*
X250875Y49128D01*
X250861Y49113D01*
X250846Y49094D01*
X250832Y49064D01*
X250817Y49035D01*
X250807Y49001D01*
X250802Y48962D01*
Y48171D01*
Y48166D01*
Y48162D01*
Y48147D01*
Y48127D01*
X250797Y48079D01*
X250792Y48020D01*
X250783Y47952D01*
X250773Y47879D01*
X250753Y47805D01*
X250729Y47732D01*
X250724Y47722D01*
X250714Y47703D01*
X250700Y47669D01*
X250675Y47630D01*
X250646Y47586D01*
X250612Y47537D01*
X250573Y47488D01*
X250529Y47444D01*
X250524Y47439D01*
X250504Y47425D01*
X250480Y47410D01*
X250446Y47386D01*
X250407Y47361D01*
X250358Y47332D01*
X250304Y47308D01*
X250251Y47288D01*
X250246D01*
X250221Y47278D01*
X250192Y47273D01*
X250153Y47264D01*
X250109Y47254D01*
X250056Y47249D01*
X249943Y47239D01*
X249914D01*
X249880Y47244D01*
X249836D01*
X249787Y47249D01*
X249729Y47259D01*
X249611Y47288D01*
X249607Y47293D01*
X249587Y47298D01*
X249558Y47312D01*
X249519Y47327D01*
X249475Y47351D01*
X249431Y47381D01*
X249382Y47415D01*
X249338Y47454D01*
X249333Y47459D01*
X249319Y47473D01*
X249294Y47503D01*
X249270Y47537D01*
X249236Y47576D01*
X249206Y47625D01*
X249177Y47683D01*
X249148Y47747D01*
X249143Y47756D01*
X249138Y47776D01*
X249124Y47815D01*
X249109Y47864D01*
X249099Y47927D01*
X249084Y48000D01*
X249079Y48083D01*
X249075Y48171D01*
Y49616D01*
X249655D01*
Y48093D01*
Y48088D01*
Y48083D01*
X249660Y48059D01*
X249665Y48025D01*
X249680Y47986D01*
X249685Y47976D01*
X249694Y47957D01*
X249714Y47927D01*
X249738Y47898D01*
X249743Y47893D01*
X249763Y47879D01*
X249792Y47859D01*
X249831Y47839D01*
X249841Y47835D01*
X249860Y47830D01*
X249894Y47820D01*
X249938Y47815D01*
X249958D01*
X249982Y47820D01*
X250012Y47825D01*
X250041Y47835D01*
X250075Y47849D01*
X250109Y47869D01*
X250143Y47898D01*
X250148Y47903D01*
X250158Y47913D01*
X250168Y47932D01*
X250182Y47952D01*
X250202Y47981D01*
X250212Y48015D01*
X250221Y48054D01*
X250226Y48093D01*
Y48874D01*
Y48879D01*
Y48893D01*
Y48913D01*
X250231Y48942D01*
Y48981D01*
X250236Y49020D01*
X250256Y49118D01*
X250280Y49225D01*
X250319Y49338D01*
X250373Y49445D01*
X250407Y49499D01*
X250446Y49547D01*
Y49552D01*
X250456Y49557D01*
X250470Y49572D01*
X250485Y49586D01*
X250509Y49606D01*
X250534Y49626D01*
X250568Y49650D01*
X250607Y49674D01*
X250651Y49699D01*
X250695Y49723D01*
X250748Y49743D01*
X250807Y49762D01*
X250870Y49777D01*
X250934Y49791D01*
X251007Y49796D01*
X251085Y49801D01*
X251144D01*
X251173Y49796D01*
D02*
G37*
G36*
X251969Y51363D02*
Y51358D01*
Y51348D01*
Y51333D01*
Y51309D01*
X251964Y51280D01*
Y51251D01*
X251959Y51173D01*
X251949Y51090D01*
X251929Y50997D01*
X251910Y50899D01*
X251881Y50806D01*
Y50802D01*
X251876Y50797D01*
X251866Y50767D01*
X251842Y50723D01*
X251817Y50665D01*
X251778Y50602D01*
X251734Y50533D01*
X251686Y50465D01*
X251627Y50401D01*
X251617Y50397D01*
X251598Y50372D01*
X251564Y50343D01*
X251515Y50309D01*
X251456Y50270D01*
X251388Y50226D01*
X251315Y50187D01*
X251232Y50153D01*
X251227D01*
X251222Y50148D01*
X251207D01*
X251193Y50143D01*
X251144Y50128D01*
X251080Y50113D01*
X251002Y50099D01*
X250914Y50089D01*
X250817Y50079D01*
X250710Y50074D01*
X249075D01*
Y50660D01*
X250744D01*
X250768Y50665D01*
X250797D01*
X250827Y50670D01*
X250900Y50684D01*
X250983Y50704D01*
X251071Y50738D01*
X251149Y50782D01*
X251222Y50841D01*
X251232Y50850D01*
X251251Y50875D01*
X251275Y50914D01*
X251310Y50972D01*
X251344Y51046D01*
X251368Y51133D01*
X251388Y51231D01*
X251397Y51348D01*
Y52251D01*
X251969D01*
Y51363D01*
D02*
G37*
G36*
Y59171D02*
Y59166D01*
Y59161D01*
Y59146D01*
Y59127D01*
X251964Y59083D01*
X251959Y59020D01*
X251949Y58951D01*
X251939Y58883D01*
X251920Y58805D01*
X251895Y58736D01*
X251890Y58727D01*
X251881Y58707D01*
X251866Y58673D01*
X251842Y58634D01*
X251812Y58585D01*
X251778Y58536D01*
X251739Y58488D01*
X251695Y58444D01*
X251690Y58439D01*
X251671Y58424D01*
X251646Y58410D01*
X251612Y58385D01*
X251573Y58361D01*
X251524Y58331D01*
X251471Y58307D01*
X251417Y58288D01*
X251412D01*
X251388Y58278D01*
X251359Y58273D01*
X251320Y58263D01*
X251271Y58253D01*
X251217Y58249D01*
X251095Y58239D01*
X251066D01*
X251027Y58244D01*
X250983Y58249D01*
X250929Y58258D01*
X250870Y58268D01*
X250812Y58288D01*
X250748Y58312D01*
X250739Y58317D01*
X250719Y58327D01*
X250690Y58341D01*
X250656Y58371D01*
X250617Y58400D01*
X250578Y58439D01*
X250543Y58488D01*
X250514Y58541D01*
X250509Y58536D01*
X250500Y58517D01*
X250485Y58488D01*
X250461Y58453D01*
X250426Y58414D01*
X250382Y58380D01*
X250334Y58341D01*
X250275Y58312D01*
X250265Y58307D01*
X250246Y58302D01*
X250212Y58288D01*
X250168Y58278D01*
X250119Y58263D01*
X250065Y58249D01*
X250002Y58244D01*
X249943Y58239D01*
X249914D01*
X249875Y58244D01*
X249831D01*
X249777Y58253D01*
X249719Y58263D01*
X249660Y58273D01*
X249602Y58292D01*
X249597Y58297D01*
X249572Y58302D01*
X249543Y58317D01*
X249504Y58336D01*
X249465Y58361D01*
X249416Y58390D01*
X249367Y58424D01*
X249324Y58463D01*
X249319Y58468D01*
X249304Y58483D01*
X249285Y58512D01*
X249255Y58546D01*
X249226Y58585D01*
X249197Y58634D01*
X249167Y58693D01*
X249143Y58756D01*
X249138Y58766D01*
X249133Y58785D01*
X249124Y58824D01*
X249109Y58873D01*
X249094Y58937D01*
X249084Y59005D01*
X249079Y59083D01*
X249075Y59171D01*
Y60615D01*
X249655D01*
Y59093D01*
Y59088D01*
Y59083D01*
X249660Y59059D01*
X249665Y59024D01*
X249680Y58985D01*
X249685Y58976D01*
X249694Y58956D01*
X249714Y58927D01*
X249738Y58898D01*
X249743Y58893D01*
X249763Y58878D01*
X249792Y58859D01*
X249831Y58839D01*
X249841Y58834D01*
X249860Y58829D01*
X249894Y58819D01*
X249938Y58815D01*
X249958D01*
X249982Y58819D01*
X250012Y58824D01*
X250041Y58834D01*
X250075Y58849D01*
X250109Y58868D01*
X250143Y58893D01*
X250148Y58898D01*
X250158Y58907D01*
X250168Y58922D01*
X250182Y58946D01*
X250202Y58976D01*
X250212Y59010D01*
X250221Y59049D01*
X250226Y59093D01*
Y60615D01*
X250802D01*
Y59093D01*
Y59088D01*
Y59083D01*
X250807Y59059D01*
X250812Y59024D01*
X250827Y58985D01*
X250832Y58976D01*
X250841Y58956D01*
X250866Y58927D01*
X250890Y58898D01*
X250895Y58893D01*
X250914Y58878D01*
X250944Y58859D01*
X250983Y58839D01*
X250992Y58834D01*
X251012Y58829D01*
X251046Y58819D01*
X251085Y58815D01*
X251110D01*
X251134Y58819D01*
X251168Y58824D01*
X251202Y58834D01*
X251241Y58849D01*
X251280Y58868D01*
X251315Y58893D01*
X251320Y58898D01*
X251329Y58907D01*
X251339Y58922D01*
X251354Y58946D01*
X251373Y58976D01*
X251383Y59010D01*
X251393Y59049D01*
X251397Y59093D01*
Y60615D01*
X251969D01*
Y59171D01*
D02*
G37*
G36*
X240314Y53461D02*
Y53453D01*
Y53437D01*
Y53406D01*
X240322Y53375D01*
Y53328D01*
X240330Y53273D01*
X240361Y53156D01*
X240400Y53023D01*
X240463Y52883D01*
X240557Y52758D01*
X240611Y52696D01*
X240674Y52641D01*
X240682D01*
X240689Y52633D01*
X240713Y52617D01*
X240744Y52602D01*
X240783Y52578D01*
X240830Y52555D01*
X240885Y52531D01*
X240947Y52508D01*
X241025Y52485D01*
X241111Y52461D01*
X241205Y52438D01*
X241306Y52414D01*
X241416Y52399D01*
X241541Y52383D01*
X241673Y52375D01*
X241877D01*
X241955Y52383D01*
X242048Y52391D01*
X242158Y52407D01*
X242283Y52430D01*
X242415Y52469D01*
X242556Y52508D01*
X242696Y52570D01*
X242829Y52641D01*
X242954Y52727D01*
X243064Y52828D01*
X243157Y52953D01*
X243235Y53094D01*
X243282Y53266D01*
X243290Y53351D01*
X243298Y53453D01*
Y55327D01*
X244094D01*
Y53664D01*
Y53656D01*
Y53641D01*
Y53609D01*
X244087Y53578D01*
Y53531D01*
X244079Y53469D01*
X244055Y53336D01*
X244024Y53180D01*
X243977Y53008D01*
X243899Y52813D01*
X243806Y52625D01*
X243688Y52430D01*
X243618Y52328D01*
X243532Y52242D01*
X243446Y52149D01*
X243353Y52063D01*
X243243Y51985D01*
X243126Y51907D01*
X243001Y51836D01*
X242868Y51774D01*
X242720Y51719D01*
X242564Y51672D01*
X242392Y51633D01*
X242212Y51602D01*
X242017Y51587D01*
X241806Y51579D01*
X241736D01*
X241689Y51587D01*
X241642D01*
X241580Y51594D01*
X241509Y51602D01*
X241431Y51610D01*
X241260Y51641D01*
X241072Y51688D01*
X240861Y51750D01*
X240650Y51836D01*
X240439Y51954D01*
X240229Y52086D01*
X240135Y52164D01*
X240041Y52258D01*
X239947Y52352D01*
X239869Y52461D01*
X239791Y52570D01*
X239721Y52696D01*
X239658Y52828D01*
X239612Y52977D01*
X239565Y53133D01*
X239533Y53297D01*
X239518Y53477D01*
X239510Y53664D01*
Y55335D01*
X240314D01*
Y53461D01*
D02*
G37*
G36*
X242868Y60037D02*
X242931Y60029D01*
X243001Y60021D01*
X243087Y60006D01*
X243173Y59974D01*
X243267Y59943D01*
X243274Y59935D01*
X243306Y59927D01*
X243353Y59904D01*
X243407Y59873D01*
X243470Y59834D01*
X243540Y59779D01*
X243618Y59724D01*
X243688Y59662D01*
X243696Y59654D01*
X243720Y59631D01*
X243751Y59592D01*
X243790Y59545D01*
X243837Y59490D01*
X243891Y59420D01*
X243938Y59342D01*
X243985Y59256D01*
X243993Y59248D01*
X244001Y59217D01*
X244016Y59170D01*
X244040Y59108D01*
X244063Y59037D01*
X244079Y58959D01*
X244087Y58865D01*
X244094Y58772D01*
Y57991D01*
Y57983D01*
Y57967D01*
Y57936D01*
X244087Y57905D01*
Y57858D01*
X244079Y57795D01*
X244055Y57663D01*
X244024Y57506D01*
X243977Y57335D01*
X243899Y57139D01*
X243806Y56952D01*
X243688Y56757D01*
X243618Y56655D01*
X243532Y56569D01*
X243446Y56476D01*
X243353Y56390D01*
X243243Y56312D01*
X243126Y56233D01*
X243001Y56163D01*
X242868Y56101D01*
X242720Y56046D01*
X242564Y55999D01*
X242392Y55960D01*
X242212Y55929D01*
X242017Y55913D01*
X241806Y55905D01*
X241736D01*
X241689Y55913D01*
X241642D01*
X241580Y55921D01*
X241509Y55929D01*
X241431Y55937D01*
X241260Y55968D01*
X241072Y56015D01*
X240861Y56077D01*
X240650Y56163D01*
X240439Y56280D01*
X240229Y56413D01*
X240135Y56491D01*
X240041Y56585D01*
X239947Y56679D01*
X239869Y56788D01*
X239791Y56897D01*
X239721Y57022D01*
X239658Y57155D01*
X239612Y57303D01*
X239565Y57460D01*
X239533Y57624D01*
X239518Y57803D01*
X239510Y57991D01*
Y59662D01*
X240314D01*
Y57788D01*
Y57780D01*
Y57764D01*
Y57733D01*
X240322Y57702D01*
Y57655D01*
X240330Y57600D01*
X240361Y57483D01*
X240400Y57350D01*
X240463Y57210D01*
X240557Y57085D01*
X240611Y57022D01*
X240674Y56968D01*
X240682D01*
X240689Y56960D01*
X240713Y56944D01*
X240744Y56928D01*
X240783Y56905D01*
X240830Y56882D01*
X240885Y56858D01*
X240947Y56835D01*
X241025Y56811D01*
X241111Y56788D01*
X241205Y56765D01*
X241306Y56741D01*
X241416Y56725D01*
X241541Y56710D01*
X241673Y56702D01*
X241877D01*
X241955Y56710D01*
X242048Y56718D01*
X242158Y56733D01*
X242283Y56757D01*
X242415Y56796D01*
X242556Y56835D01*
X242696Y56897D01*
X242829Y56968D01*
X242954Y57053D01*
X243064Y57155D01*
X243157Y57280D01*
X243235Y57420D01*
X243282Y57592D01*
X243290Y57678D01*
X243298Y57780D01*
Y58740D01*
Y58748D01*
Y58756D01*
X243290Y58803D01*
X243274Y58865D01*
X243251Y58936D01*
Y58943D01*
X243243Y58951D01*
X243220Y58990D01*
X243181Y59045D01*
X243134Y59092D01*
X243118Y59108D01*
X243079Y59131D01*
X243024Y59170D01*
X242954Y59201D01*
X242946D01*
X242939Y59209D01*
X242892Y59225D01*
X242822Y59232D01*
X242736Y59240D01*
X242696D01*
X242657Y59232D01*
X242603Y59225D01*
X242548Y59209D01*
X242486Y59178D01*
X242423Y59146D01*
X242361Y59100D01*
X242353Y59092D01*
X242337Y59076D01*
X242306Y59045D01*
X242275Y59006D01*
X242251Y58951D01*
X242220Y58889D01*
X242204Y58819D01*
X242197Y58740D01*
Y58014D01*
X241384D01*
Y58780D01*
Y58795D01*
Y58826D01*
X241392Y58873D01*
X241400Y58943D01*
X241408Y59014D01*
X241431Y59100D01*
X241455Y59186D01*
X241494Y59272D01*
X241502Y59279D01*
X241509Y59311D01*
X241533Y59357D01*
X241564Y59412D01*
X241611Y59474D01*
X241658Y59545D01*
X241712Y59607D01*
X241783Y59678D01*
X241791Y59685D01*
X241814Y59709D01*
X241853Y59740D01*
X241908Y59779D01*
X241970Y59818D01*
X242040Y59865D01*
X242126Y59904D01*
X242220Y59943D01*
X242228Y59951D01*
X242267Y59959D01*
X242314Y59974D01*
X242384Y59998D01*
X242462Y60013D01*
X242556Y60029D01*
X242665Y60037D01*
X242775Y60045D01*
X242814D01*
X242868Y60037D01*
D02*
G37*
G36*
X249841Y63641D02*
X249899Y63636D01*
X249914D01*
X249934Y63631D01*
X249953Y63626D01*
X250016Y63607D01*
X250085Y63577D01*
X250090D01*
X250099Y63568D01*
X250119Y63558D01*
X250143Y63543D01*
X250202Y63499D01*
X250241Y63470D01*
X250275Y63436D01*
X250280Y63431D01*
X250290Y63416D01*
X250309Y63397D01*
X250329Y63368D01*
X250353Y63333D01*
X250382Y63294D01*
X250412Y63246D01*
X250436Y63192D01*
X251119Y61625D01*
Y61621D01*
X251124Y61616D01*
X251144Y61586D01*
X251168Y61552D01*
X251198Y61523D01*
X251202Y61518D01*
X251222Y61508D01*
X251251Y61499D01*
X251280Y61494D01*
X251290D01*
X251315Y61499D01*
X251344Y61508D01*
X251368Y61533D01*
X251373Y61538D01*
X251383Y61557D01*
X251393Y61586D01*
X251397Y61625D01*
Y63582D01*
X251969D01*
Y61640D01*
Y61635D01*
Y61625D01*
Y61606D01*
X251964Y61581D01*
Y61552D01*
X251959Y61518D01*
X251944Y61435D01*
X251920Y61347D01*
X251890Y61260D01*
X251842Y61172D01*
X251778Y61093D01*
X251768Y61084D01*
X251744Y61064D01*
X251700Y61035D01*
X251646Y61001D01*
X251573Y60967D01*
X251490Y60937D01*
X251393Y60918D01*
X251285Y60908D01*
X251237D01*
X251183Y60913D01*
X251119Y60923D01*
X251115D01*
X251105Y60928D01*
X251085Y60932D01*
X251061Y60937D01*
X251002Y60962D01*
X250934Y60996D01*
X250929Y61001D01*
X250919Y61006D01*
X250900Y61020D01*
X250875Y61035D01*
X250817Y61079D01*
X250753Y61142D01*
X250748Y61147D01*
X250739Y61162D01*
X250719Y61181D01*
X250700Y61211D01*
X250675Y61250D01*
X250646Y61299D01*
X250622Y61352D01*
X250592Y61411D01*
X249929Y62938D01*
Y62943D01*
X249924Y62948D01*
X249909Y62972D01*
X249890Y63007D01*
X249855Y63036D01*
X249846Y63041D01*
X249826Y63055D01*
X249797Y63070D01*
X249763Y63075D01*
X249753D01*
X249733Y63070D01*
X249709Y63060D01*
X249685Y63041D01*
X249680Y63036D01*
X249670Y63016D01*
X249660Y62987D01*
X249655Y62938D01*
Y61015D01*
X249075D01*
Y62919D01*
Y62924D01*
Y62933D01*
Y62953D01*
X249079Y62977D01*
Y63011D01*
X249084Y63046D01*
X249099Y63124D01*
X249124Y63212D01*
X249158Y63304D01*
X249206Y63392D01*
X249270Y63465D01*
X249280Y63475D01*
X249304Y63494D01*
X249348Y63524D01*
X249402Y63558D01*
X249475Y63587D01*
X249558Y63617D01*
X249655Y63636D01*
X249763Y63646D01*
X249797D01*
X249841Y63641D01*
D02*
G37*
G36*
X244094Y48689D02*
Y48681D01*
Y48673D01*
Y48650D01*
Y48627D01*
X244087Y48548D01*
X244079Y48455D01*
X244071Y48345D01*
X244048Y48236D01*
X244024Y48119D01*
X243985Y48009D01*
X243977Y47994D01*
X243962Y47963D01*
X243938Y47916D01*
X243899Y47853D01*
X243860Y47783D01*
X243806Y47705D01*
X243743Y47635D01*
X243673Y47564D01*
X243665Y47556D01*
X243641Y47533D01*
X243595Y47510D01*
X243548Y47471D01*
X243478Y47431D01*
X243407Y47385D01*
X243321Y47346D01*
X243235Y47314D01*
X243228D01*
X243196Y47307D01*
X243142Y47291D01*
X243079Y47283D01*
X243009Y47267D01*
X242923Y47252D01*
X242736Y47244D01*
X242689D01*
X242634Y47252D01*
X242564Y47260D01*
X242486Y47267D01*
X242400Y47291D01*
X242298Y47314D01*
X242204Y47353D01*
X242197Y47361D01*
X242158Y47377D01*
X242111Y47408D01*
X242056Y47447D01*
X241994Y47502D01*
X241923Y47564D01*
X241853Y47642D01*
X241791Y47736D01*
X241783Y47728D01*
X241759Y47689D01*
X241728Y47642D01*
X241673Y47588D01*
X241619Y47525D01*
X241541Y47463D01*
X241462Y47400D01*
X241369Y47353D01*
X241353Y47346D01*
X241322Y47338D01*
X241275Y47322D01*
X241205Y47299D01*
X241127Y47275D01*
X241041Y47260D01*
X240955Y47252D01*
X240861Y47244D01*
X240814D01*
X240752Y47252D01*
X240682D01*
X240596Y47267D01*
X240502Y47283D01*
X240408Y47299D01*
X240314Y47330D01*
X240307Y47338D01*
X240275Y47346D01*
X240229Y47369D01*
X240166Y47392D01*
X240096Y47431D01*
X240025Y47478D01*
X239955Y47525D01*
X239885Y47588D01*
X239877Y47596D01*
X239854Y47619D01*
X239822Y47658D01*
X239783Y47713D01*
X239737Y47775D01*
X239690Y47853D01*
X239651Y47939D01*
X239612Y48041D01*
X239604Y48056D01*
X239596Y48088D01*
X239580Y48150D01*
X239557Y48228D01*
X239541Y48322D01*
X239526Y48431D01*
X239518Y48556D01*
X239510Y48689D01*
Y50977D01*
X240314D01*
Y48564D01*
Y48556D01*
Y48548D01*
X240322Y48502D01*
X240330Y48431D01*
X240361Y48361D01*
Y48353D01*
X240369Y48345D01*
X240392Y48306D01*
X240424Y48252D01*
X240478Y48197D01*
X240494Y48189D01*
X240525Y48158D01*
X240580Y48119D01*
X240650Y48080D01*
X240658D01*
X240666Y48072D01*
X240713Y48064D01*
X240775Y48048D01*
X240845Y48041D01*
X240885D01*
X240924Y48048D01*
X240978Y48056D01*
X241041Y48080D01*
X241103Y48103D01*
X241166Y48142D01*
X241228Y48189D01*
X241236Y48197D01*
X241252Y48213D01*
X241275Y48252D01*
X241306Y48291D01*
X241338Y48345D01*
X241361Y48416D01*
X241377Y48486D01*
X241384Y48572D01*
Y50977D01*
X242197D01*
Y48564D01*
Y48556D01*
Y48548D01*
X242204Y48502D01*
X242212Y48431D01*
X242244Y48361D01*
Y48353D01*
X242251Y48345D01*
X242275Y48306D01*
X242306Y48252D01*
X242353Y48197D01*
X242369Y48189D01*
X242400Y48158D01*
X242454Y48119D01*
X242525Y48080D01*
X242532D01*
X242540Y48072D01*
X242587Y48064D01*
X242650Y48048D01*
X242728Y48041D01*
X242767D01*
X242814Y48048D01*
X242876Y48056D01*
X242939Y48080D01*
X243009Y48103D01*
X243079Y48142D01*
X243142Y48189D01*
X243149Y48197D01*
X243165Y48213D01*
X243189Y48252D01*
X243220Y48291D01*
X243251Y48345D01*
X243274Y48416D01*
X243290Y48486D01*
X243298Y48572D01*
Y50977D01*
X244094D01*
Y48689D01*
D02*
G37*
G36*
X47244Y0D02*
X45276D01*
Y94488D01*
X47244D01*
Y0D01*
D02*
G37*
G36*
X7874Y157480D02*
X0D01*
Y210000D01*
X7874D01*
Y157480D01*
D02*
G37*
G36*
X31496Y0D02*
X27559D01*
Y94488D01*
X31496D01*
Y0D01*
D02*
G37*
G36*
X39370D02*
X36417D01*
Y94488D01*
X39370D01*
Y0D01*
D02*
G37*
G36*
X15748Y157480D02*
X9843D01*
Y210000D01*
X15748D01*
Y157480D01*
D02*
G37*
G36*
X39370D02*
X36417D01*
Y210000D01*
X39370D01*
Y157480D01*
D02*
G37*
G36*
X47244D02*
X45276D01*
Y210000D01*
X47244D01*
Y157480D01*
D02*
G37*
G36*
X23622D02*
X18701D01*
X18701Y210000D01*
X23622D01*
X23622Y157480D01*
D02*
G37*
G36*
X31496D02*
X27559D01*
Y210000D01*
X31496D01*
Y157480D01*
D02*
G37*
G36*
X227917Y82086D02*
X228073Y82066D01*
X228249Y82047D01*
X228444Y82027D01*
X228873Y81949D01*
X229362Y81832D01*
X229870Y81675D01*
X230397Y81461D01*
X230944Y81187D01*
X231451Y80836D01*
X231705Y80640D01*
X231940Y80406D01*
X232154Y80172D01*
X232369Y79898D01*
X232565Y79625D01*
X232740Y79312D01*
X232897Y78980D01*
X233014Y78609D01*
X233131Y78219D01*
X233209Y77808D01*
X233248Y77359D01*
X233268Y76891D01*
Y75992D01*
Y75973D01*
Y75934D01*
Y75855D01*
X233248Y75777D01*
Y75660D01*
X233229Y75504D01*
X233170Y75172D01*
X233092Y74781D01*
X232975Y74352D01*
X232780Y73864D01*
X232545Y73395D01*
X232252Y72907D01*
X232076Y72653D01*
X231862Y72438D01*
X231647Y72203D01*
X231412Y71989D01*
X231139Y71793D01*
X230846Y71598D01*
X230534Y71422D01*
X230202Y71266D01*
X229830Y71129D01*
X229440Y71012D01*
X229010Y70914D01*
X228561Y70836D01*
X228073Y70797D01*
X227545Y70778D01*
X227370D01*
X227253Y70797D01*
X227135D01*
X226979Y70817D01*
X226803Y70836D01*
X226608Y70856D01*
X226178Y70934D01*
X225710Y71051D01*
X225182Y71207D01*
X224655Y71422D01*
X224128Y71715D01*
X223600Y72047D01*
X223366Y72242D01*
X223132Y72477D01*
X222897Y72711D01*
X222702Y72985D01*
X222507Y73258D01*
X222331Y73571D01*
X222175Y73902D01*
X222058Y74274D01*
X221940Y74664D01*
X221862Y75074D01*
X221823Y75524D01*
X221804Y75992D01*
Y76871D01*
Y76891D01*
Y76930D01*
Y77008D01*
X221823Y77086D01*
Y77203D01*
X221843Y77359D01*
X221901Y77672D01*
X221979Y78082D01*
X222097Y78512D01*
X222272Y78980D01*
X222507Y79469D01*
X222819Y79957D01*
X222995Y80191D01*
X223190Y80426D01*
X223405Y80640D01*
X223659Y80875D01*
X223913Y81070D01*
X224206Y81265D01*
X224518Y81441D01*
X224870Y81597D01*
X225221Y81734D01*
X225631Y81871D01*
X226042Y81968D01*
X226510Y82047D01*
X226979Y82086D01*
X227506Y82105D01*
X227799D01*
X227917Y82086D01*
D02*
G37*
G36*
X233268Y67262D02*
X221804D01*
Y69293D01*
X233268D01*
Y67262D01*
D02*
G37*
G36*
Y63513D02*
X224733D01*
X224616Y63493D01*
X224460Y63473D01*
X224264Y63395D01*
X224089Y63298D01*
X223932Y63142D01*
X223815Y62927D01*
X223796Y62790D01*
X223776Y62634D01*
Y62614D01*
Y62595D01*
X223796Y62477D01*
X223854Y62341D01*
X223971Y62204D01*
X224010Y62185D01*
X224108Y62126D01*
X224284Y62048D01*
X224518Y61950D01*
X231608Y59626D01*
X231647Y59607D01*
X231744Y59587D01*
X231901Y59509D01*
X232096Y59411D01*
X232311Y59294D01*
X232526Y59118D01*
X232740Y58923D01*
X232936Y58669D01*
X232955Y58630D01*
X233014Y58552D01*
X233072Y58396D01*
X233151Y58200D01*
X233248Y57966D01*
X233307Y57673D01*
X233365Y57380D01*
X233385Y57048D01*
Y57029D01*
Y56950D01*
X233365Y56814D01*
Y56677D01*
X233346Y56482D01*
X233307Y56287D01*
X233209Y55876D01*
Y55857D01*
X233170Y55779D01*
X233131Y55681D01*
X233072Y55564D01*
X232897Y55251D01*
X232643Y54939D01*
X232623Y54919D01*
X232584Y54880D01*
X232506Y54802D01*
X232389Y54724D01*
X232272Y54607D01*
X232116Y54509D01*
X231764Y54314D01*
X231744D01*
X231666Y54275D01*
X231569Y54255D01*
X231412Y54216D01*
X231237Y54177D01*
X231041Y54138D01*
X230826Y54119D01*
X230592Y54099D01*
X224733D01*
X224616Y54080D01*
X224460Y54060D01*
X224264Y54001D01*
X224089Y53884D01*
X223932Y53728D01*
X223815Y53533D01*
X223796Y53396D01*
X223776Y53240D01*
Y53220D01*
Y53201D01*
X223796Y53084D01*
X223854Y52947D01*
X223971Y52830D01*
X224010Y52810D01*
X224108Y52751D01*
X224284Y52654D01*
X224518Y52556D01*
X233268Y49490D01*
Y47225D01*
X223542Y50701D01*
X223522D01*
X223503Y50720D01*
X223405Y50760D01*
X223249Y50838D01*
X223054Y50935D01*
X222858Y51072D01*
X222643Y51228D01*
X222429Y51443D01*
X222233Y51677D01*
X222214Y51717D01*
X222155Y51795D01*
X222077Y51951D01*
X221999Y52146D01*
X221921Y52381D01*
X221843Y52654D01*
X221784Y52947D01*
X221765Y53279D01*
Y53298D01*
Y53377D01*
X221784Y53494D01*
Y53650D01*
X221823Y53826D01*
X221862Y54021D01*
X221901Y54216D01*
X221979Y54431D01*
Y54451D01*
X222018Y54529D01*
X222058Y54626D01*
X222116Y54763D01*
X222292Y55056D01*
X222546Y55369D01*
X222565Y55388D01*
X222604Y55447D01*
X222682Y55505D01*
X222780Y55603D01*
X222917Y55701D01*
X223073Y55818D01*
X223229Y55915D01*
X223425Y56013D01*
X223444Y56033D01*
X223522Y56052D01*
X223620Y56091D01*
X223757Y56130D01*
X223932Y56169D01*
X224128Y56208D01*
X224342Y56247D01*
X230397D01*
X230514Y56267D01*
X230670Y56287D01*
X230846Y56345D01*
X231041Y56462D01*
X231198Y56599D01*
X231315Y56814D01*
X231334Y56931D01*
X231354Y57087D01*
Y57107D01*
Y57126D01*
X231334Y57243D01*
X231276Y57400D01*
X231178Y57517D01*
X231139Y57536D01*
X231041Y57614D01*
X230885Y57693D01*
X230670Y57790D01*
X223542Y60095D01*
X223522D01*
X223503Y60114D01*
X223405Y60153D01*
X223249Y60212D01*
X223054Y60329D01*
X222858Y60446D01*
X222643Y60622D01*
X222429Y60837D01*
X222233Y61071D01*
X222214Y61110D01*
X222155Y61208D01*
X222077Y61345D01*
X221999Y61540D01*
X221921Y61774D01*
X221843Y62048D01*
X221784Y62360D01*
X221765Y62673D01*
Y62692D01*
Y62770D01*
X221784Y62888D01*
Y63044D01*
X221823Y63220D01*
X221862Y63415D01*
X221901Y63610D01*
X221979Y63825D01*
Y63845D01*
X222018Y63923D01*
X222058Y64020D01*
X222116Y64157D01*
X222292Y64450D01*
X222546Y64763D01*
X222565Y64782D01*
X222604Y64841D01*
X222682Y64899D01*
X222780Y64997D01*
X222917Y65095D01*
X223073Y65212D01*
X223229Y65309D01*
X223425Y65407D01*
X223444Y65426D01*
X223522Y65446D01*
X223620Y65485D01*
X223757Y65524D01*
X223932Y65563D01*
X224128Y65602D01*
X224342Y65641D01*
X233268D01*
Y63513D01*
D02*
G37*
G36*
X241915Y105491D02*
X241962D01*
X242025Y105483D01*
X242095Y105475D01*
X242173Y105460D01*
X242345Y105429D01*
X242532Y105382D01*
X242743Y105319D01*
X242954Y105233D01*
X243165Y105116D01*
X243376Y104983D01*
X243470Y104897D01*
X243563Y104812D01*
X243657Y104718D01*
X243735Y104609D01*
X243813Y104499D01*
X243884Y104374D01*
X243946Y104242D01*
X243993Y104093D01*
X244040Y103945D01*
X244071Y103781D01*
X244087Y103601D01*
X244094Y103414D01*
Y101516D01*
X239510D01*
Y103414D01*
Y103421D01*
Y103437D01*
Y103468D01*
X239518Y103507D01*
Y103554D01*
X239526Y103609D01*
X239549Y103742D01*
X239580Y103898D01*
X239627Y104077D01*
X239698Y104265D01*
X239791Y104460D01*
X239916Y104648D01*
X239986Y104749D01*
X240065Y104843D01*
X240150Y104929D01*
X240252Y105015D01*
X240353Y105101D01*
X240471Y105171D01*
X240596Y105241D01*
X240736Y105304D01*
X240877Y105366D01*
X241041Y105413D01*
X241205Y105444D01*
X241392Y105475D01*
X241580Y105491D01*
X241791Y105499D01*
X241869D01*
X241915Y105491D01*
D02*
G37*
G36*
X15748Y0D02*
X9843D01*
Y94488D01*
X15748D01*
Y0D01*
D02*
G37*
G36*
X23622D02*
X18701D01*
Y94488D01*
X23622D01*
Y0D01*
D02*
G37*
G36*
X7874D02*
X0D01*
Y94488D01*
X7874D01*
Y0D01*
D02*
G37*
%LPC*%
G36*
X241931Y104687D02*
X241728D01*
X241658Y104679D01*
X241556Y104671D01*
X241447Y104655D01*
X241322Y104632D01*
X241189Y104601D01*
X241049Y104554D01*
X240916Y104499D01*
X240783Y104429D01*
X240658Y104343D01*
X240541Y104234D01*
X240447Y104116D01*
X240377Y103968D01*
X240330Y103804D01*
X240322Y103710D01*
X240314Y103617D01*
Y102328D01*
X243298D01*
Y103609D01*
Y103617D01*
Y103632D01*
Y103664D01*
X243290Y103703D01*
Y103742D01*
X243282Y103796D01*
X243251Y103913D01*
X243212Y104046D01*
X243149Y104179D01*
X243056Y104312D01*
X243001Y104366D01*
X242939Y104421D01*
X242931D01*
X242923Y104429D01*
X242900Y104445D01*
X242868Y104460D01*
X242829Y104484D01*
X242782Y104507D01*
X242720Y104530D01*
X242657Y104554D01*
X242579Y104577D01*
X242493Y104601D01*
X242400Y104624D01*
X242298Y104648D01*
X242189Y104663D01*
X242064Y104679D01*
X241931Y104687D01*
D02*
G37*
G36*
X227897Y80094D02*
X227370D01*
X227253Y80074D01*
X227077D01*
X226901Y80054D01*
X226471Y80015D01*
X226003Y79918D01*
X225534Y79801D01*
X225085Y79644D01*
X224889Y79527D01*
X224714Y79410D01*
X224694D01*
X224675Y79371D01*
X224577Y79273D01*
X224421Y79117D01*
X224264Y78902D01*
X224108Y78609D01*
X223952Y78258D01*
X223854Y77848D01*
X223815Y77633D01*
Y77379D01*
Y75485D01*
Y75465D01*
Y75426D01*
Y75348D01*
X223835Y75270D01*
Y75152D01*
X223854Y75016D01*
X223932Y74723D01*
X224030Y74391D01*
X224186Y74039D01*
X224421Y73727D01*
X224557Y73571D01*
X224714Y73434D01*
X224733D01*
X224753Y73414D01*
X224811Y73375D01*
X224889Y73336D01*
X224987Y73278D01*
X225104Y73219D01*
X225241Y73160D01*
X225397Y73102D01*
X225592Y73043D01*
X225807Y72985D01*
X226042Y72926D01*
X226295Y72867D01*
X226569Y72828D01*
X226881Y72789D01*
X227213Y72770D01*
X227721D01*
X227917Y72789D01*
X228151Y72809D01*
X228424Y72848D01*
X228737Y72907D01*
X229069Y73004D01*
X229420Y73102D01*
X229772Y73258D01*
X230104Y73434D01*
X230416Y73649D01*
X230690Y73902D01*
X230924Y74215D01*
X231119Y74567D01*
X231237Y74996D01*
X231256Y75211D01*
X231276Y75465D01*
Y77398D01*
Y77438D01*
Y77516D01*
X231256Y77652D01*
X231217Y77828D01*
X231158Y78023D01*
X231080Y78258D01*
X230963Y78492D01*
X230807Y78746D01*
X230612Y79000D01*
X230377Y79234D01*
X230065Y79469D01*
X229713Y79664D01*
X229284Y79840D01*
X228795Y79976D01*
X228522Y80035D01*
X228209Y80054D01*
X227897Y80094D01*
D02*
G37*
G36*
X249938Y57424D02*
X249929D01*
X249904Y57419D01*
X249870Y57414D01*
X249831Y57399D01*
X249826D01*
X249821Y57394D01*
X249797Y57385D01*
X249768Y57365D01*
X249738Y57341D01*
X249733Y57336D01*
X249714Y57316D01*
X249699Y57287D01*
X249680Y57253D01*
X249675Y57243D01*
X249665Y57224D01*
X249660Y57190D01*
X249655Y57151D01*
Y56209D01*
X250226D01*
Y57146D01*
Y57151D01*
Y57165D01*
X250221Y57185D01*
X250217Y57214D01*
X250207Y57243D01*
X250192Y57277D01*
X250173Y57311D01*
X250143Y57341D01*
X250138Y57346D01*
X250129Y57355D01*
X250109Y57365D01*
X250085Y57385D01*
X250056Y57399D01*
X250021Y57409D01*
X249982Y57419D01*
X249938Y57424D01*
D02*
G37*
G36*
X250607Y54769D02*
X250451D01*
X250417Y54764D01*
X250373Y54759D01*
X250270Y54750D01*
X250163Y54730D01*
X250051Y54706D01*
X249948Y54667D01*
X249899Y54642D01*
X249860Y54613D01*
X249851Y54608D01*
X249826Y54584D01*
X249797Y54549D01*
X249758Y54496D01*
X249719Y54432D01*
X249690Y54349D01*
X249665Y54257D01*
X249655Y54149D01*
Y53686D01*
Y53681D01*
Y53671D01*
Y53656D01*
X249660Y53637D01*
X249665Y53578D01*
X249680Y53510D01*
X249704Y53432D01*
X249743Y53359D01*
X249792Y53281D01*
X249860Y53217D01*
X249870Y53212D01*
X249880Y53203D01*
X249899Y53193D01*
X249924Y53183D01*
X249948Y53168D01*
X249982Y53154D01*
X250021Y53139D01*
X250065Y53124D01*
X250114Y53110D01*
X250168Y53095D01*
X250226Y53086D01*
X250295Y53076D01*
X250368Y53066D01*
X250446Y53061D01*
X250568D01*
X250607Y53066D01*
X250665Y53071D01*
X250729Y53081D01*
X250802Y53095D01*
X250880Y53115D01*
X250963Y53139D01*
X251046Y53173D01*
X251124Y53212D01*
X251198Y53261D01*
X251261Y53325D01*
X251320Y53393D01*
X251359Y53476D01*
X251388Y53574D01*
X251393Y53622D01*
X251397Y53681D01*
Y54154D01*
Y54159D01*
Y54179D01*
X251393Y54213D01*
X251383Y54252D01*
X251373Y54296D01*
X251354Y54349D01*
X251324Y54403D01*
X251290Y54462D01*
X251241Y54520D01*
X251188Y54574D01*
X251115Y54628D01*
X251031Y54672D01*
X250929Y54711D01*
X250817Y54745D01*
X250680Y54764D01*
X250607Y54769D01*
D02*
G37*
%LPD*%
D19*
X-10842Y0D02*
X-1000D01*
X-10842Y210000D02*
X-1000D01*
X-9843Y0D02*
Y87805D01*
Y118995D02*
Y210000D01*
Y0D02*
X-7842Y6000D01*
X-11842D02*
X-9843Y0D01*
X-11842Y204000D02*
X-9843Y210000D01*
X-7842Y204000D01*
X270000Y151000D02*
Y226394D01*
X0Y211000D02*
Y226394D01*
X148995Y225394D02*
X270000D01*
X0D02*
X117805D01*
X264000Y227394D02*
X270000Y225394D01*
X264000Y223394D02*
X270000Y225394D01*
X0D02*
X6000Y223394D01*
X0Y225394D02*
X6000Y227394D01*
X93504Y100394D02*
Y101378D01*
X91535Y97441D02*
X93504Y99410D01*
Y100394D01*
X169000Y195000D02*
Y205000D01*
X159000Y195000D02*
X169000D01*
X159000D02*
Y205000D01*
X69000D02*
X159000D01*
X69000Y195000D02*
Y205000D01*
Y195000D02*
X159000D01*
Y205000D02*
X169000D01*
X188937Y29134D02*
Y52756D01*
X143268Y29134D02*
Y52756D01*
Y29134D02*
X188937D01*
X186969Y52756D02*
X188937D01*
X143268D02*
X145236D01*
X0Y150591D02*
X8858D01*
X0Y143701D02*
Y150591D01*
Y108268D02*
Y143701D01*
Y101378D02*
Y108268D01*
Y101378D02*
X18701D01*
X19685Y100394D01*
X47244D01*
Y151575D01*
X19685D02*
X47244D01*
X18701Y150591D02*
X19685Y151575D01*
X8858Y150591D02*
X18701D01*
X185000Y5000D02*
Y15000D01*
X105000Y5000D02*
X185000D01*
X105000D02*
Y15000D01*
X185000D01*
X175000Y5000D02*
Y15000D01*
X255000Y195000D02*
Y205000D01*
X175000Y195000D02*
X255000D01*
X175000D02*
Y205000D01*
X255000D01*
X245000Y195000D02*
Y205000D01*
X195000Y10000D02*
Y15000D01*
X205000D01*
Y5000D02*
X255000D01*
Y15000D01*
X205000D02*
X255000D01*
X205000Y5000D02*
Y15000D01*
X195000Y5000D02*
X205000D01*
X195000D02*
Y10000D01*
X55572Y137826D02*
X55072Y137326D01*
Y136327D01*
X55572Y135827D01*
X57571D01*
X58071Y136327D01*
Y137326D01*
X57571Y137826D01*
X58071Y138826D02*
Y139825D01*
Y139326D01*
X55072D01*
X55572Y138826D01*
Y114204D02*
X55072Y113704D01*
Y112705D01*
X55572Y112205D01*
X57571D01*
X58071Y112705D01*
Y113704D01*
X57571Y114204D01*
X58071Y117203D02*
Y115204D01*
X56072Y117203D01*
X55572D01*
X55072Y116703D01*
Y115704D01*
X55572Y115204D01*
X72304Y135858D02*
X71804Y135358D01*
Y134358D01*
X72304Y133858D01*
X74303D01*
X74803Y134358D01*
Y135358D01*
X74303Y135858D01*
X72304Y136857D02*
X71804Y137357D01*
Y138357D01*
X72304Y138857D01*
X72804D01*
X73304Y138357D01*
Y137857D01*
Y138357D01*
X73804Y138857D01*
X74303D01*
X74803Y138357D01*
Y137357D01*
X74303Y136857D01*
X81724Y145216D02*
X81224Y145716D01*
X80224D01*
X79724Y145216D01*
Y143216D01*
X80224Y142717D01*
X81224D01*
X81724Y143216D01*
X84223Y142717D02*
Y145716D01*
X82723Y144216D01*
X84723D01*
X69913Y109783D02*
X69413Y110283D01*
X68413D01*
X67913Y109783D01*
Y107783D01*
X68413Y107283D01*
X69413D01*
X69913Y107783D01*
X72912Y110283D02*
X70912D01*
Y108783D01*
X71912Y109283D01*
X72412D01*
X72912Y108783D01*
Y107783D01*
X72412Y107283D01*
X71412D01*
X70912Y107783D01*
X86084Y91566D02*
X85584Y91066D01*
Y90067D01*
X86084Y89567D01*
X88083D01*
X88583Y90067D01*
Y91066D01*
X88083Y91566D01*
X88583Y92566D02*
Y93566D01*
Y93066D01*
X85584D01*
X86084Y92566D01*
Y95065D02*
X85584Y95565D01*
Y96565D01*
X86084Y97065D01*
X88083D01*
X88583Y96565D01*
Y95565D01*
X88083Y95065D01*
X86084D01*
X133405Y125953D02*
X133905Y126453D01*
Y127453D01*
X133405Y127953D01*
X131405D01*
X130905Y127453D01*
Y126453D01*
X131405Y125953D01*
X130905Y124954D02*
Y123954D01*
Y124454D01*
X133905D01*
X133405Y124954D01*
X130905Y122455D02*
Y121455D01*
Y121955D01*
X133905D01*
X133405Y122455D01*
X97472Y89113D02*
X96972Y89613D01*
X95972D01*
X95472Y89113D01*
Y87114D01*
X95972Y86614D01*
X96972D01*
X97472Y87114D01*
X98471Y86614D02*
X99471D01*
X98971D01*
Y89613D01*
X98471Y89113D01*
X102970Y86614D02*
X100971D01*
X102970Y88613D01*
Y89113D01*
X102470Y89613D01*
X101470D01*
X100971Y89113D01*
X125531Y125953D02*
X126031Y126453D01*
Y127453D01*
X125531Y127953D01*
X123531D01*
X123031Y127453D01*
Y126453D01*
X123531Y125953D01*
X123031Y124954D02*
Y123954D01*
Y124454D01*
X126031D01*
X125531Y124954D01*
Y122455D02*
X126031Y121955D01*
Y120955D01*
X125531Y120455D01*
X125031D01*
X124531Y120955D01*
Y121455D01*
Y120955D01*
X124031Y120455D01*
X123531D01*
X123031Y120955D01*
Y121955D01*
X123531Y122455D01*
X189991Y135373D02*
X189492Y135873D01*
X188492D01*
X187992Y135373D01*
Y133374D01*
X188492Y132874D01*
X189492D01*
X189991Y133374D01*
X190991Y132874D02*
X191991D01*
X191491D01*
Y135873D01*
X190991Y135373D01*
X194990Y132874D02*
Y135873D01*
X193490Y134373D01*
X195490D01*
X189991Y169822D02*
X189492Y170322D01*
X188492D01*
X187992Y169822D01*
Y167823D01*
X188492Y167323D01*
X189492D01*
X189991Y167823D01*
X190991Y167323D02*
X191991D01*
X191491D01*
Y170322D01*
X190991Y169822D01*
X195490Y170322D02*
X193490D01*
Y168822D01*
X194490Y169322D01*
X194990D01*
X195490Y168822D01*
Y167823D01*
X194990Y167323D01*
X193990D01*
X193490Y167823D01*
X171291Y70413D02*
X170791Y70912D01*
X169791D01*
X169291Y70413D01*
Y68413D01*
X169791Y67913D01*
X170791D01*
X171291Y68413D01*
X172290Y67913D02*
X173290D01*
X172790D01*
Y70912D01*
X172290Y70413D01*
X176789Y70912D02*
X175789Y70413D01*
X174790Y69413D01*
Y68413D01*
X175289Y67913D01*
X176289D01*
X176789Y68413D01*
Y68913D01*
X176289Y69413D01*
X174790D01*
X151606Y70413D02*
X151106Y70912D01*
X150106D01*
X149606Y70413D01*
Y68413D01*
X150106Y67913D01*
X151106D01*
X151606Y68413D01*
X152605Y67913D02*
X153605D01*
X153105D01*
Y70912D01*
X152605Y70413D01*
X155104Y70912D02*
X157104D01*
Y70413D01*
X155104Y68413D01*
Y67913D01*
X93958Y59086D02*
X93458Y58586D01*
Y57586D01*
X93958Y57087D01*
X95957D01*
X96457Y57586D01*
Y58586D01*
X95957Y59086D01*
X96457Y60086D02*
Y61085D01*
Y60585D01*
X93458D01*
X93958Y60086D01*
Y62585D02*
X93458Y63085D01*
Y64084D01*
X93958Y64584D01*
X94457D01*
X94957Y64084D01*
X95457Y64584D01*
X95957D01*
X96457Y64084D01*
Y63085D01*
X95957Y62585D01*
X95457D01*
X94957Y63085D01*
X94457Y62585D01*
X93958D01*
X94957Y63085D02*
Y64084D01*
X153497Y82708D02*
Y80709D01*
X154997D01*
Y81708D01*
Y80709D01*
X156496D01*
X153497Y83708D02*
X156496D01*
Y85207D01*
X155996Y85707D01*
X155496D01*
X154997Y85207D01*
Y83708D01*
Y85207D01*
X154497Y85707D01*
X153997D01*
X153497Y85207D01*
Y83708D01*
X156496Y86707D02*
Y87706D01*
Y87207D01*
X153497D01*
X153997Y86707D01*
X140702Y143701D02*
Y144701D01*
Y144201D01*
X143701D01*
Y143701D01*
Y144701D01*
X141202Y148199D02*
X140702Y147699D01*
Y146700D01*
X141202Y146200D01*
X143201D01*
X143701Y146700D01*
Y147699D01*
X143201Y148199D01*
X143701Y151198D02*
Y149199D01*
X141701Y151198D01*
X141202D01*
X140702Y150698D01*
Y149699D01*
X141202Y149199D01*
X195282Y53063D02*
Y52063D01*
Y52563D01*
X192283D01*
Y53063D01*
Y52063D01*
X194783Y48564D02*
X195282Y49064D01*
Y50064D01*
X194783Y50564D01*
X192783D01*
X192283Y50064D01*
Y49064D01*
X192783Y48564D01*
X194783Y47565D02*
X195282Y47065D01*
Y46065D01*
X194783Y45565D01*
X194283D01*
X193783Y46065D01*
Y46565D01*
Y46065D01*
X193283Y45565D01*
X192783D01*
X192283Y46065D01*
Y47065D01*
X192783Y47565D01*
X127999Y69882D02*
Y68882D01*
Y69382D01*
X125000D01*
Y69882D01*
Y68882D01*
X127499Y65383D02*
X127999Y65883D01*
Y66883D01*
X127499Y67383D01*
X125500D01*
X125000Y66883D01*
Y65883D01*
X125500Y65383D01*
X125000Y62884D02*
X127999D01*
X126499Y64384D01*
Y62384D01*
X117080Y82677D02*
Y83677D01*
Y83177D01*
X120079D01*
Y82677D01*
Y83677D01*
X117579Y87176D02*
X117080Y86676D01*
Y85676D01*
X117579Y85176D01*
X119579D01*
X120079Y85676D01*
Y86676D01*
X119579Y87176D01*
X117080Y90175D02*
Y88175D01*
X118579D01*
X118079Y89175D01*
Y89675D01*
X118579Y90175D01*
X119579D01*
X120079Y89675D01*
Y88675D01*
X119579Y88175D01*
X52196Y132920D02*
X51196D01*
X51696D01*
Y130421D01*
X51196Y129921D01*
X50697D01*
X50197Y130421D01*
X53196Y129921D02*
X54196D01*
X53696D01*
Y132920D01*
X53196Y132421D01*
X53150Y150591D02*
Y153590D01*
X54649D01*
X55149Y153090D01*
Y152090D01*
X54649Y151590D01*
X53150D01*
X54149D02*
X55149Y150591D01*
X56149D02*
X57148D01*
X56648D01*
Y153590D01*
X56149Y153090D01*
X53150Y98425D02*
Y101424D01*
X54649D01*
X55149Y100924D01*
Y99925D01*
X54649Y99425D01*
X53150D01*
X54149D02*
X55149Y98425D01*
X58148D02*
X56149D01*
X58148Y100425D01*
Y100924D01*
X57648Y101424D01*
X56648D01*
X56149Y100924D01*
X90551Y144685D02*
X87552D01*
Y146185D01*
X88052Y146684D01*
X89052D01*
X89552Y146185D01*
Y144685D01*
Y145685D02*
X90551Y146684D01*
X88052Y147684D02*
X87552Y148184D01*
Y149184D01*
X88052Y149683D01*
X88552D01*
X89052Y149184D01*
Y148684D01*
Y149184D01*
X89552Y149683D01*
X90051D01*
X90551Y149184D01*
Y148184D01*
X90051Y147684D01*
X100394Y160433D02*
Y163432D01*
X101893D01*
X102393Y162932D01*
Y161933D01*
X101893Y161433D01*
X100394D01*
X101393D02*
X102393Y160433D01*
X104892D02*
Y163432D01*
X103393Y161933D01*
X105392D01*
X116142Y157480D02*
X119141D01*
Y155981D01*
X118641Y155481D01*
X117641D01*
X117141Y155981D01*
Y157480D01*
Y156481D02*
X116142Y155481D01*
X119141Y152482D02*
Y154481D01*
X117641D01*
X118141Y153482D01*
Y152982D01*
X117641Y152482D01*
X116642D01*
X116142Y152982D01*
Y153981D01*
X116642Y154481D01*
X134843Y84646D02*
X131843D01*
Y86145D01*
X132343Y86645D01*
X133343D01*
X133843Y86145D01*
Y84646D01*
Y85645D02*
X134843Y86645D01*
X131843Y89644D02*
X132343Y88644D01*
X133343Y87645D01*
X134343D01*
X134843Y88144D01*
Y89144D01*
X134343Y89644D01*
X133843D01*
X133343Y89144D01*
Y87645D01*
D20*
X236221Y47244D02*
Y97441D01*
X233268Y100394D02*
X236221Y97441D01*
X221457Y112205D02*
X236221Y115157D01*
X241142Y116142D01*
X233268Y124016D02*
X236221Y121063D01*
X233268Y124016D02*
X236221Y126969D01*
Y132874D01*
X233268Y100394D02*
X236221Y103347D01*
X221457Y112205D02*
X239249Y108646D01*
X236221Y118110D02*
Y121063D01*
Y118110D02*
X241142Y116142D01*
X236221Y103347D02*
Y106299D01*
X239173Y108268D01*
D30*
X89272Y133661D02*
G03*
X89272Y133661I-492J0D01*
G01*
X186693Y162205D02*
G03*
X186693Y162205I-492J0D01*
G01*
X109547Y57579D02*
G03*
X109547Y57579I-492J0D01*
G01*
X117027Y93996D02*
G03*
X117027Y93996I-492J0D01*
G01*
D31*
X98228Y128347D02*
G03*
X98228Y128347I-1181J0D01*
G01*
X182087Y153740D02*
G03*
X182087Y153740I-1181J0D01*
G01*
D32*
X187795Y57087D02*
G03*
X187795Y57087I-787J0D01*
G01*
D33*
X65354Y133071D02*
Y134646D01*
X60630Y133071D02*
Y134646D01*
X65354Y117323D02*
Y118898D01*
X60630Y117323D02*
Y118898D01*
X75197Y125197D02*
Y126772D01*
X70472Y125197D02*
Y126772D01*
X84842Y135433D02*
X86417D01*
X84842Y140157D02*
X86417D01*
X84842Y112598D02*
X86417D01*
X84842Y107874D02*
X86417D01*
X100591Y104724D02*
X102165D01*
X100591Y100000D02*
X102165D01*
X130012Y134752D02*
Y136327D01*
X134736Y134752D02*
Y136327D01*
X100591Y96850D02*
X102165D01*
X100591Y92126D02*
X102165D01*
X122138Y134752D02*
Y136327D01*
X126862Y134752D02*
Y136327D01*
X188583Y142913D02*
Y144488D01*
X193307Y142913D02*
Y144488D01*
X193307Y158661D02*
Y160236D01*
X188583Y158661D02*
Y160236D01*
X174409Y65354D02*
X175984D01*
X174409Y60630D02*
X175984D01*
X154724Y65354D02*
X156299D01*
X154724Y60630D02*
X156299D01*
X104724Y62205D02*
Y63779D01*
X100000Y62205D02*
Y63779D01*
X142323Y86811D02*
Y88386D01*
X147047Y86811D02*
Y88386D01*
X93110Y115748D02*
Y132283D01*
X109646Y115748D02*
Y132283D01*
X93110D02*
X109646D01*
X93110Y115748D02*
X109646D01*
X145866Y157677D02*
X184843D01*
X145866Y145472D02*
X184843D01*
Y157677D01*
X145866Y145472D02*
Y157677D01*
X110039Y64961D02*
X122244D01*
X110039Y61024D02*
X122244D01*
Y64961D01*
X110039Y61024D02*
Y64961D01*
X117717Y97244D02*
Y99606D01*
X126378Y97244D02*
Y99606D01*
X117717Y97244D02*
X126378D01*
X117717Y99606D02*
X126378D01*
X57874Y143307D02*
X60236D01*
X57874Y148031D02*
X60236D01*
X57874Y103937D02*
X60236D01*
X57874Y108661D02*
X60236D01*
X97244Y145276D02*
X99606D01*
X97244Y150000D02*
X99606D01*
X97244Y153150D02*
X99606D01*
X97244Y157874D02*
X99606D01*
X108858Y150394D02*
Y152756D01*
X113583Y150394D02*
Y152756D01*
X129528Y97244D02*
Y99606D01*
X134252Y97244D02*
Y99606D01*
D34*
X-11242Y93403D02*
Y89404D01*
X-8243D01*
X-9243Y91404D01*
Y92404D01*
X-8243Y93403D01*
X-6244D01*
X-5244Y92404D01*
Y90404D01*
X-6244Y89404D01*
X-10242Y95403D02*
X-11242Y96402D01*
Y98402D01*
X-10242Y99401D01*
X-9243D01*
X-8243Y98402D01*
Y97402D01*
Y98402D01*
X-7243Y99401D01*
X-6244D01*
X-5244Y98402D01*
Y96402D01*
X-6244Y95403D01*
X-4244Y102400D02*
X-5244Y103400D01*
X-6244D01*
Y102400D01*
X-5244D01*
Y103400D01*
X-4244Y102400D01*
X-3244Y101401D01*
X-10242Y107399D02*
X-11242Y108398D01*
Y110398D01*
X-10242Y111397D01*
X-9243D01*
X-8243Y110398D01*
Y109398D01*
Y110398D01*
X-7243Y111397D01*
X-6244D01*
X-5244Y110398D01*
Y108398D01*
X-6244Y107399D01*
X-5244Y116396D02*
X-11242D01*
X-8243Y113397D01*
Y117395D01*
X123403Y226793D02*
X121404Y225793D01*
X119404Y223794D01*
Y221795D01*
X120404Y220795D01*
X122404D01*
X123403Y221795D01*
Y222794D01*
X122404Y223794D01*
X119404D01*
X125403Y225793D02*
X126402Y226793D01*
X128402D01*
X129401Y225793D01*
Y224794D01*
X128402Y223794D01*
X129401Y222794D01*
Y221795D01*
X128402Y220795D01*
X126402D01*
X125403Y221795D01*
Y222794D01*
X126402Y223794D01*
X125403Y224794D01*
Y225793D01*
X126402Y223794D02*
X128402D01*
X132400Y219795D02*
X133400Y220795D01*
Y221795D01*
X132400D01*
Y220795D01*
X133400D01*
X132400Y219795D01*
X131401Y218796D01*
X141397Y226793D02*
X137399D01*
Y223794D01*
X139398Y224794D01*
X140398D01*
X141397Y223794D01*
Y221795D01*
X140398Y220795D01*
X138398D01*
X137399Y221795D01*
X143397Y225793D02*
X144396Y226793D01*
X146396D01*
X147396Y225793D01*
Y224794D01*
X146396Y223794D01*
X147396Y222794D01*
Y221795D01*
X146396Y220795D01*
X144396D01*
X143397Y221795D01*
Y222794D01*
X144396Y223794D01*
X143397Y224794D01*
Y225793D01*
X144396Y223794D02*
X146396D01*
D35*
X94000Y190293D02*
X94942Y189350D01*
Y188408D01*
X94000D01*
X93058Y189350D01*
X93764Y188644D01*
X94707Y189586D01*
X92586Y188879D02*
X94000Y187465D01*
X93293Y186758D01*
X92822D01*
X92351Y187230D01*
Y187701D01*
X93058Y188408D01*
X92586Y187937D02*
X91644D01*
Y185109D02*
X92586Y186052D01*
X91172Y187465D01*
X90230Y186523D01*
X91879Y186758D02*
X91408Y186287D01*
X90230Y183695D02*
X91172Y184638D01*
X90466Y185345D01*
X89994Y184873D01*
X90466Y185345D01*
X89759Y186052D01*
X104236Y188172D02*
X104707D01*
X105178Y188644D01*
X105178Y189115D01*
X104236Y190057D01*
X103764D01*
X103293Y189586D01*
X103293Y189115D01*
X103764Y188644D01*
X104236Y189115D01*
X102586Y188879D02*
X104000Y187465D01*
X101644Y187937D01*
X103058Y186523D01*
X102586Y186052D02*
X101172Y187465D01*
X100466Y186758D01*
X100466Y186287D01*
X101408Y185345D01*
X101879D01*
X102586Y186052D01*
X115414Y188879D02*
X114943Y188408D01*
X115178Y188644D01*
X113764Y190057D01*
X114000Y190293D01*
X113529Y189822D01*
X113529Y186994D02*
X114000Y187465D01*
X114000Y187937D01*
X113057Y188879D01*
X112586D01*
X112115Y188408D01*
Y187937D01*
X113057Y186994D01*
X113529D01*
X111408Y187701D02*
X110937Y187230D01*
X111172Y187465D01*
X112586Y186052D01*
X112586Y186523D01*
X111408Y185345D02*
Y184873D01*
X110937Y184402D01*
X110466D01*
X110230Y184638D01*
Y185109D01*
X110466Y185345D01*
X110230Y185109D01*
X109759Y185109D01*
X109523Y185345D01*
X109523Y185816D01*
X109994Y186287D01*
X110466D01*
X125414Y188879D02*
X124943Y188408D01*
X125178Y188644D01*
X123764Y190057D01*
X124000Y190293D01*
X123529Y189822D01*
X123529Y186994D02*
X124000Y187465D01*
X124000Y187937D01*
X123057Y188879D01*
X122586D01*
X122115Y188408D01*
Y187937D01*
X123057Y186994D01*
X123529D01*
X121408Y187701D02*
X120937Y187230D01*
X121172Y187465D01*
X122586Y186052D01*
X122586Y186523D01*
X119288Y185580D02*
X120230Y186523D01*
Y184638D01*
X120466Y184402D01*
X120937D01*
X121408Y184873D01*
Y185345D01*
X135414Y188879D02*
X134942Y188408D01*
X135178Y188644D01*
X133764Y190057D01*
X134000Y190293D01*
X133529Y189822D01*
X133529Y186994D02*
X134000Y187465D01*
X134000Y187937D01*
X133057Y188879D01*
X132586D01*
X132115Y188408D01*
Y187937D01*
X133057Y186994D01*
X133529D01*
X131408Y187701D02*
X130937Y187230D01*
X131173Y187465D01*
X132586Y186052D01*
X132586Y186523D01*
X130230D02*
X129759Y186052D01*
X129994Y186287D01*
X131408Y184873D01*
Y185345D01*
X128816Y182753D02*
X128816Y182282D01*
X128345Y181810D01*
X128345Y181339D01*
X145414Y189586D02*
X144942Y189115D01*
X145178Y189351D01*
X143764Y190764D01*
X144000Y191000D01*
X143529Y190529D01*
X143529Y187701D02*
X144000Y188172D01*
X144000Y188644D01*
X143058Y189586D01*
X142586D01*
X142115Y189115D01*
Y188644D01*
X143058Y187701D01*
X143529D01*
X141408Y188408D02*
X140937Y187937D01*
X141173Y188172D01*
X142586Y186759D01*
X142586Y187230D01*
X141408Y186052D02*
Y185581D01*
X140937Y185109D01*
X140466D01*
X139523Y186052D01*
X139523Y186523D01*
X139994Y186994D01*
X140466D01*
X141408Y186052D01*
X138581Y183224D02*
X138581Y182753D01*
X138109Y182282D01*
X138109Y181811D01*
X155414Y189586D02*
X154943Y189115D01*
X155178Y189351D01*
X153764Y190764D01*
X154000Y191000D01*
X153529Y190529D01*
X153529Y187701D02*
X154000Y188172D01*
X154000Y188644D01*
X153058Y189586D01*
X152586D01*
X152115Y189115D01*
Y188644D01*
X153058Y187701D01*
X153529D01*
X151644Y188172D02*
X151172D01*
X150701Y187701D01*
X150701Y187230D01*
X151644Y186287D01*
X152115D01*
X152586Y186759D01*
X152586Y187230D01*
X152351Y187466D01*
X151879Y187466D01*
X151172Y186759D01*
X149759Y184403D02*
X149759Y183931D01*
X149287Y183460D01*
X149287Y182989D01*
X165414Y189586D02*
X164943Y189115D01*
X165178Y189351D01*
X163764Y190764D01*
X164000Y191000D01*
X163529Y190529D01*
X163529Y187701D02*
X164000Y188172D01*
X164000Y188644D01*
X163057Y189586D01*
X162586D01*
X162115Y189115D01*
Y188644D01*
X163057Y187701D01*
X163529D01*
X162586Y187230D02*
X162586Y186759D01*
X162115Y186287D01*
X161644D01*
X161408Y186523D01*
Y186994D01*
X160937Y186994D01*
X160701Y187230D01*
X160701Y187701D01*
X161172Y188172D01*
X161644D01*
X161879Y187937D01*
Y187466D01*
X162351Y187466D01*
X162586Y187230D01*
X161879Y187466D02*
X161408Y186994D01*
X181914Y189879D02*
X181442Y189408D01*
X181678Y189644D01*
X180264Y191057D01*
X180500Y191293D01*
X180029Y190822D01*
X180029Y187994D02*
X180500Y188465D01*
X180500Y188937D01*
X179558Y189879D01*
X179086D01*
X178615Y189408D01*
Y188937D01*
X179558Y187994D01*
X180029D01*
X179322Y187287D02*
X178379Y186345D01*
X178144Y186580D01*
Y188465D01*
X177908Y188701D01*
X191914Y189879D02*
X191443Y189408D01*
X191678Y189644D01*
X190264Y191057D01*
X190500Y191293D01*
X190029Y190822D01*
X190029Y187994D02*
X190500Y188465D01*
X190500Y188937D01*
X189558Y189879D01*
X189086D01*
X188615Y189408D01*
Y188937D01*
X189558Y187994D01*
X190029D01*
X188379Y186345D02*
X188615Y187052D01*
Y187994D01*
X188144Y188465D01*
X187672D01*
X187201Y187994D01*
X187201Y187523D01*
X187437Y187287D01*
X187908Y187287D01*
X188615Y187994D01*
X186259Y184695D02*
X186259Y184224D01*
X185787Y183753D01*
X185787Y183282D01*
X201914Y189879D02*
X201443Y189408D01*
X201678Y189644D01*
X200264Y191057D01*
X200500Y191293D01*
X200029Y190822D01*
X200029Y187994D02*
X200500Y188465D01*
X200500Y188937D01*
X199557Y189879D01*
X199086D01*
X198615Y189408D01*
Y188937D01*
X199557Y187994D01*
X200029D01*
X198379Y186345D02*
X199322Y187287D01*
X198615Y187994D01*
X198379Y187287D01*
X198144Y187052D01*
X197672D01*
X197201Y187523D01*
X197201Y187994D01*
X197672Y188465D01*
X198144D01*
X196259Y184695D02*
X196259Y184224D01*
X195788Y183753D01*
X195788Y183282D01*
X211914Y189879D02*
X211442Y189408D01*
X211678Y189644D01*
X210264Y191057D01*
X210500Y191293D01*
X210029Y190822D01*
X210029Y187994D02*
X210500Y188465D01*
X210500Y188937D01*
X209558Y189879D01*
X209086D01*
X208615Y189408D01*
Y188937D01*
X209558Y187994D01*
X210029D01*
X207201D02*
X208615Y186580D01*
Y187994D01*
X207673Y187052D01*
X221914Y189879D02*
X221443Y189408D01*
X221678Y189644D01*
X220264Y191057D01*
X220500Y191293D01*
X220029Y190822D01*
X220029Y187994D02*
X220500Y188465D01*
X220500Y188937D01*
X219557Y189879D01*
X219086D01*
X218615Y189408D01*
Y188937D01*
X219557Y187994D01*
X220029D01*
X219086Y187523D02*
X219086Y187052D01*
X218615Y186580D01*
X218144D01*
X217908Y186816D01*
Y187287D01*
X218144Y187523D01*
X217908Y187287D01*
X217437Y187287D01*
X217201Y187523D01*
X217201Y187994D01*
X217672Y188465D01*
X218144D01*
X216259Y184695D02*
X216259Y184224D01*
X215788Y183753D01*
X215788Y183282D01*
X231914Y189879D02*
X231442Y189408D01*
X231678Y189644D01*
X230264Y191057D01*
X230500Y191293D01*
X230029Y190822D01*
X230029Y187994D02*
X230500Y188465D01*
X230500Y188937D01*
X229557Y189879D01*
X229086D01*
X228615Y189408D01*
Y188937D01*
X229557Y187994D01*
X230029D01*
X226966Y187759D02*
X227908Y188701D01*
Y186816D01*
X228144Y186580D01*
X228615D01*
X229086Y187052D01*
X229086Y187523D01*
X241914Y189879D02*
X241442Y189408D01*
X241678Y189644D01*
X240264Y191057D01*
X240500Y191293D01*
X240029Y190822D01*
X240029Y187994D02*
X240500Y188465D01*
X240500Y188937D01*
X239558Y189879D01*
X239086D01*
X238615Y189408D01*
Y188937D01*
X239558Y187994D01*
X240029D01*
X237908Y188701D02*
X237437Y188230D01*
X237672Y188465D01*
X239086Y187052D01*
X239086Y187523D01*
X251914Y189879D02*
X251443Y189408D01*
X251678Y189644D01*
X250264Y191057D01*
X250500Y191293D01*
X250029Y190822D01*
X250029Y187994D02*
X250500Y188465D01*
X250500Y188937D01*
X249557Y189879D01*
X249086D01*
X248615Y189408D01*
Y188937D01*
X249557Y187994D01*
X250029D01*
X249086Y187523D02*
X249086Y187052D01*
X248615Y186580D01*
X248144D01*
X247201Y187523D01*
X247201Y187994D01*
X247673Y188465D01*
X248144D01*
X249086Y187523D01*
X250000Y18707D02*
X249058Y19650D01*
Y20592D01*
X250000D01*
X250942Y19650D01*
X250236Y20357D01*
X249293Y19414D01*
X250000Y21535D02*
X251414Y20121D01*
X252121Y20828D01*
Y21299D01*
X251178Y22242D01*
X250707D01*
X250000Y21535D01*
X252356Y23891D02*
X251414Y22948D01*
X252121Y22242D01*
X252356Y22948D01*
X252592Y23184D01*
X253063D01*
X253534Y22713D01*
X253534Y22242D01*
X253063Y21770D01*
X252592D01*
X240000Y18707D02*
X239057Y19650D01*
Y20592D01*
X240000D01*
X240943Y19650D01*
X240236Y20357D01*
X239293Y19414D01*
X240000Y21535D02*
X241414Y20121D01*
X242121Y20828D01*
Y21299D01*
X241178Y22242D01*
X240707D01*
X240000Y21535D01*
X243534Y22242D02*
X242121Y23655D01*
Y22242D01*
X243063Y23184D01*
X230000Y18707D02*
X229058Y19650D01*
Y20592D01*
X230000D01*
X230943Y19650D01*
X230236Y20357D01*
X229293Y19414D01*
X230000Y21535D02*
X231414Y20121D01*
X232121Y20828D01*
Y21299D01*
X231178Y22242D01*
X230707D01*
X230000Y21535D01*
X231649Y22713D02*
Y23184D01*
X232121Y23655D01*
X232592D01*
X232827Y23420D01*
Y22948D01*
X232592Y22713D01*
X232827Y22948D01*
X233299Y22948D01*
X233534Y22713D01*
X233534Y22242D01*
X233063Y21770D01*
X232592D01*
X220000Y18707D02*
X219057Y19650D01*
Y20592D01*
X220000D01*
X220942Y19650D01*
X220236Y20357D01*
X219293Y19414D01*
X220000Y21535D02*
X221414Y20121D01*
X222121Y20828D01*
Y21299D01*
X221178Y22242D01*
X220707D01*
X220000Y21535D01*
X223770Y22477D02*
X222828Y21535D01*
Y23420D01*
X222592Y23655D01*
X222121D01*
X221649Y23184D01*
Y22713D01*
X210000Y18707D02*
X209057Y19650D01*
Y20592D01*
X210000D01*
X210943Y19650D01*
X210236Y20357D01*
X209293Y19414D01*
X210000Y21535D02*
X211414Y20121D01*
X212121Y20828D01*
Y21299D01*
X211178Y22242D01*
X210707D01*
X210000Y21535D01*
X212827D02*
X213299Y22006D01*
X213063Y21770D01*
X211649Y23184D01*
Y22713D01*
X200000Y18707D02*
X199057Y19650D01*
Y20592D01*
X200000D01*
X200942Y19650D01*
X200236Y20357D01*
X199293Y19414D01*
X200000Y21535D02*
X201414Y20121D01*
X202121Y20828D01*
Y21299D01*
X201178Y22242D01*
X200707D01*
X200000Y21535D01*
X201649Y22713D02*
Y23184D01*
X202121Y23655D01*
X202592D01*
X203534Y22713D01*
X203534Y22242D01*
X203063Y21770D01*
X202592D01*
X201649Y22713D01*
X178586Y20121D02*
X179529Y19178D01*
X180471D01*
Y20121D01*
X179529Y21063D01*
X181414Y20121D02*
X181885Y20592D01*
X181649Y20357D01*
X180707Y21299D01*
X180471Y21063D01*
X182592Y21299D02*
X181649Y22242D01*
X182356Y22948D01*
X182827D01*
X183534Y22242D01*
X169764Y20828D02*
X169293D01*
X168822Y20357D01*
X168822Y19885D01*
X169764Y18943D01*
X170236D01*
X170707Y19414D01*
X170707Y19885D01*
X170236Y20357D01*
X169764Y19885D01*
X171414Y20121D02*
X170000Y21535D01*
X172356Y21063D01*
X170942Y22477D01*
X171414Y22948D02*
X172827Y21535D01*
X173534Y22242D01*
X173534Y22713D01*
X172592Y23655D01*
X172121D01*
X171414Y22948D01*
X159764Y20828D02*
X159293D01*
X158822Y20357D01*
X158822Y19885D01*
X159764Y18943D01*
X160236D01*
X160707Y19414D01*
X160707Y19885D01*
X160236Y20357D01*
X159764Y19885D01*
X161414Y20121D02*
X160000Y21535D01*
X162356Y21063D01*
X160942Y22477D01*
X161414Y22948D02*
X162828Y21535D01*
X163534Y22242D01*
X163534Y22713D01*
X162592Y23655D01*
X162121D01*
X161414Y22948D01*
X149529Y21063D02*
X148586Y20121D01*
X149293Y19414D01*
X149529Y20121D01*
X149764Y20357D01*
X150236D01*
X150707Y19885D01*
X150707Y19414D01*
X150236Y18943D01*
X149764D01*
X150471Y21063D02*
X151885Y20592D01*
X151414Y22006D01*
X138822Y19885D02*
X138822Y20357D01*
X139293Y20828D01*
X139764D01*
X140000Y20592D01*
Y20121D01*
X139764Y19885D01*
X140000Y20121D01*
X140471Y20121D01*
X140707Y19885D01*
X140707Y19414D01*
X140236Y18943D01*
X139764D01*
X140471Y21063D02*
X141885Y20592D01*
X141414Y22006D01*
X141649Y22713D02*
Y23184D01*
X142121Y23655D01*
X142592D01*
X142827Y23420D01*
Y22948D01*
X142592Y22713D01*
X142827Y22948D01*
X143299Y22948D01*
X143534Y22713D01*
X143534Y22242D01*
X143063Y21770D01*
X142592D01*
X130000Y18707D02*
X128586Y20121D01*
X129293Y20828D01*
X129764D01*
X130236Y20357D01*
X130236Y19885D01*
X129529Y19178D01*
X130000Y19650D02*
X130942D01*
Y22477D02*
X130000Y21535D01*
X131414Y20121D01*
X132356Y21063D01*
X130707Y20828D02*
X131178Y21299D01*
X132592Y23655D02*
X132121D01*
X131649Y23184D01*
Y22713D01*
X131885Y22477D01*
X132356Y22477D01*
X132827Y22948D01*
X133299Y22948D01*
X133534Y22713D01*
X133534Y22242D01*
X133063Y21770D01*
X132592D01*
X133770Y25305D02*
X132827Y24362D01*
X134241Y22948D01*
X135184Y23891D01*
X133534Y23655D02*
X134006Y24126D01*
X134241Y25776D02*
X135184Y26718D01*
X134713Y26247D01*
X136126Y24833D01*
X118086Y20121D02*
X118558Y20592D01*
X118322Y20357D01*
X119736Y18943D01*
X119500Y18707D01*
X119971Y19178D01*
X119971Y22006D02*
X119500Y21535D01*
X119500Y21063D01*
X120442Y20121D01*
X120914D01*
X121385Y20592D01*
Y21063D01*
X120442Y22006D01*
X119971D01*
X122092Y21299D02*
X120678Y22713D01*
X121385Y23420D01*
X121856D01*
X122327Y22948D01*
Y22477D01*
X121621Y21770D01*
X122092Y22242D02*
X123034D01*
Y25069D02*
X122092Y24126D01*
X123506Y22713D01*
X124448Y23655D01*
X122799Y23420D02*
X123270Y23891D01*
X124448Y26483D02*
X123506Y25540D01*
X124213Y24833D01*
X124684Y25305D01*
X124213Y24833D01*
X124919Y24126D01*
X84236Y188672D02*
X84707D01*
X85178Y189144D01*
X85178Y189615D01*
X84943Y189850D01*
X84471Y189850D01*
X84000Y189379D01*
X83529Y189379D01*
X83293Y189615D01*
X83293Y190086D01*
X83764Y190557D01*
X84236D01*
X84000Y187965D02*
X82586Y189379D01*
X81879Y188672D01*
Y188201D01*
X82822Y187259D01*
X83293D01*
X84000Y187965D01*
X81173D02*
X82115Y187023D01*
Y186080D01*
X81173D01*
X80230Y187023D01*
X80937Y186316D01*
X81879Y187259D01*
X74236Y188172D02*
X74707D01*
X75178Y188644D01*
X75178Y189115D01*
X74942Y189350D01*
X74471Y189350D01*
X74000Y188879D01*
X73529Y188879D01*
X73293Y189115D01*
X73293Y189586D01*
X73764Y190057D01*
X74236D01*
X72822Y186758D02*
X73293D01*
X73764Y187230D01*
X73764Y187701D01*
X72822Y188644D01*
X72351D01*
X71879Y188172D01*
Y187701D01*
X72586Y186052D02*
X71172Y187465D01*
X70230Y186523D01*
M02*
