%FSLAX25Y25*%
%MOIN*%
G70*
G01*
G75*
G04 Layer_Color=16711935*
%ADD10R,0.05512X0.03543*%
%ADD11R,0.03543X0.05512*%
%ADD12O,0.05512X0.01181*%
%ADD13O,0.01181X0.05512*%
%ADD14O,0.02362X0.05906*%
%ADD15R,0.02362X0.03937*%
%ADD16R,0.01575X0.03347*%
%ADD17R,0.03150X0.05512*%
%ADD18R,0.05512X0.03150*%
%ADD19C,0.01000*%
%ADD20C,0.02000*%
%ADD21C,0.02500*%
%ADD22C,0.03937*%
%ADD23C,0.12598*%
%ADD24R,0.06000X0.06000*%
%ADD25C,0.06000*%
%ADD26O,0.05906X0.09843*%
G04:AMPARAMS|DCode=27|XSize=157.48mil|YSize=78.74mil|CornerRadius=19.69mil|HoleSize=0mil|Usage=FLASHONLY|Rotation=0.000|XOffset=0mil|YOffset=0mil|HoleType=Round|Shape=RoundedRectangle|*
%AMROUNDEDRECTD27*
21,1,0.15748,0.03937,0,0,0.0*
21,1,0.11811,0.07874,0,0,0.0*
1,1,0.03937,0.05906,-0.01969*
1,1,0.03937,-0.05906,-0.01969*
1,1,0.03937,-0.05906,0.01969*
1,1,0.03937,0.05906,0.01969*
%
%ADD27ROUNDEDRECTD27*%
%ADD28C,0.05906*%
%ADD29C,0.04000*%
%ADD30C,0.00984*%
%ADD31C,0.02362*%
%ADD32C,0.01969*%
%ADD33C,0.00787*%
%ADD34C,0.00600*%
%ADD35C,0.00500*%
%ADD36R,0.06312X0.04343*%
%ADD37R,0.04343X0.06312*%
%ADD38O,0.06312X0.01981*%
%ADD39O,0.01981X0.06312*%
%ADD40O,0.03162X0.06706*%
%ADD41R,0.03162X0.04737*%
%ADD42R,0.02375X0.04147*%
%ADD43R,0.03950X0.06312*%
%ADD44R,0.06312X0.03950*%
%ADD45C,0.04737*%
%ADD46C,0.13398*%
%ADD47R,0.06800X0.06800*%
%ADD48C,0.06800*%
%ADD49O,0.06706X0.10642*%
G04:AMPARAMS|DCode=50|XSize=165.48mil|YSize=86.74mil|CornerRadius=23.69mil|HoleSize=0mil|Usage=FLASHONLY|Rotation=0.000|XOffset=0mil|YOffset=0mil|HoleType=Round|Shape=RoundedRectangle|*
%AMROUNDEDRECTD50*
21,1,0.16548,0.03937,0,0,0.0*
21,1,0.11811,0.08674,0,0,0.0*
1,1,0.04737,0.05906,-0.01969*
1,1,0.04737,-0.05906,-0.01969*
1,1,0.04737,-0.05906,0.01969*
1,1,0.04737,0.05906,0.01969*
%
%ADD50ROUNDEDRECTD50*%
%ADD51C,0.06706*%
D37*
X105512Y137795D02*
D03*
X97244D02*
D03*
X89764Y118110D02*
D03*
X81496D02*
D03*
X97244Y110236D02*
D03*
X105512D02*
D03*
X89764D02*
D03*
X81496D02*
D03*
D45*
X56102Y125984D02*
D03*
X125000Y87598D02*
D03*
X157480Y169291D02*
D03*
X200787Y160433D02*
D03*
X114173Y139764D02*
D03*
X177165Y185863D02*
D03*
X162402Y190945D02*
D03*
X124016D02*
D03*
X102362Y51181D02*
D03*
X143701Y178150D02*
D03*
X167323D02*
D03*
X133858Y173228D02*
D03*
X172244D02*
D03*
X180118Y132874D02*
D03*
X163386Y123031D02*
D03*
Y128937D02*
D03*
X172244Y130905D02*
D03*
X89567Y102362D02*
D03*
X133858Y161417D02*
D03*
X200787Y145669D02*
D03*
X143701Y131890D02*
D03*
X112205Y102362D02*
D03*
Y94488D02*
D03*
X98425Y118110D02*
D03*
X105315Y122047D02*
D03*
X111221Y163386D02*
D03*
X93504D02*
D03*
X101378Y127953D02*
D03*
D46*
X260000Y30000D02*
D03*
Y140000D02*
D03*
X55000Y10000D02*
D03*
X60000Y200000D02*
D03*
D47*
X164000D02*
D03*
X180000Y10000D02*
D03*
X250000Y200000D02*
D03*
X200000Y10000D02*
D03*
D48*
X154000Y200000D02*
D03*
X144000D02*
D03*
X134000D02*
D03*
X124000D02*
D03*
X114000D02*
D03*
X104000D02*
D03*
X94000D02*
D03*
X84000D02*
D03*
X74000D02*
D03*
X150000Y10000D02*
D03*
X140000D02*
D03*
X130000D02*
D03*
X120000D02*
D03*
X110000D02*
D03*
X170000D02*
D03*
X160000D02*
D03*
X220000Y200000D02*
D03*
X210000D02*
D03*
X200000D02*
D03*
X190000D02*
D03*
X180000D02*
D03*
X240000D02*
D03*
X230000D02*
D03*
X210000Y10000D02*
D03*
X220000D02*
D03*
X230000D02*
D03*
X240000D02*
D03*
X250000D02*
D03*
D49*
X181102Y49213D02*
D03*
X171102D02*
D03*
X161102D02*
D03*
X151102D02*
D03*
D50*
X37402Y145669D02*
D03*
Y135827D02*
D03*
Y106299D02*
D03*
Y116142D02*
D03*
X17717Y125984D02*
D03*
D51*
X7874Y106299D02*
D03*
X17717D02*
D03*
X7874Y145669D02*
D03*
X17717D02*
D03*
X37402Y125984D02*
D03*
M02*
