%FSLAX25Y25*%
%MOIN*%
G70*
G01*
G75*
G04 Layer_Color=32896*
%ADD10R,0.05512X0.03543*%
%ADD11R,0.03543X0.05512*%
%ADD12O,0.05512X0.01181*%
%ADD13O,0.01181X0.05512*%
%ADD14O,0.02362X0.05906*%
%ADD15R,0.02362X0.03937*%
%ADD16R,0.01575X0.03347*%
%ADD17R,0.03150X0.05512*%
%ADD18R,0.05512X0.03150*%
%ADD19C,0.01000*%
%ADD20C,0.02000*%
%ADD21C,0.02500*%
%ADD22C,0.03937*%
%ADD23C,0.12598*%
%ADD24R,0.06000X0.06000*%
%ADD25C,0.06000*%
%ADD26O,0.05906X0.09843*%
G04:AMPARAMS|DCode=27|XSize=157.48mil|YSize=78.74mil|CornerRadius=19.69mil|HoleSize=0mil|Usage=FLASHONLY|Rotation=0.000|XOffset=0mil|YOffset=0mil|HoleType=Round|Shape=RoundedRectangle|*
%AMROUNDEDRECTD27*
21,1,0.15748,0.03937,0,0,0.0*
21,1,0.11811,0.07874,0,0,0.0*
1,1,0.03937,0.05906,-0.01969*
1,1,0.03937,-0.05906,-0.01969*
1,1,0.03937,-0.05906,0.01969*
1,1,0.03937,0.05906,0.01969*
%
%ADD27ROUNDEDRECTD27*%
%ADD28C,0.05906*%
%ADD29C,0.04000*%
%ADD30C,0.00984*%
%ADD31C,0.02362*%
%ADD32C,0.01969*%
%ADD33C,0.00787*%
%ADD34C,0.00600*%
%ADD35C,0.00500*%
%ADD36R,0.06312X0.04343*%
%ADD37R,0.04343X0.06312*%
%ADD38O,0.06312X0.01981*%
%ADD39O,0.01981X0.06312*%
%ADD40O,0.03162X0.06706*%
%ADD41R,0.03162X0.04737*%
%ADD42R,0.02375X0.04147*%
%ADD43R,0.03950X0.06312*%
%ADD44R,0.06312X0.03950*%
%ADD45C,0.04737*%
%ADD46C,0.13398*%
%ADD47R,0.06800X0.06800*%
%ADD48C,0.06800*%
%ADD49O,0.06706X0.10642*%
G04:AMPARAMS|DCode=50|XSize=165.48mil|YSize=86.74mil|CornerRadius=23.69mil|HoleSize=0mil|Usage=FLASHONLY|Rotation=0.000|XOffset=0mil|YOffset=0mil|HoleType=Round|Shape=RoundedRectangle|*
%AMROUNDEDRECTD50*
21,1,0.16548,0.03937,0,0,0.0*
21,1,0.11811,0.08674,0,0,0.0*
1,1,0.04737,0.05906,-0.01969*
1,1,0.04737,-0.05906,-0.01969*
1,1,0.04737,-0.05906,0.01969*
1,1,0.04737,0.05906,0.01969*
%
%ADD50ROUNDEDRECTD50*%
%ADD51C,0.06706*%
D19*
X105284Y145216D02*
X105784Y145716D01*
X106784D01*
X107283Y145216D01*
Y143216D01*
X106784Y142717D01*
X105784D01*
X105284Y143216D01*
X102285Y145716D02*
X103285Y145216D01*
X104284Y144216D01*
Y143216D01*
X103785Y142717D01*
X102785D01*
X102285Y143216D01*
Y143716D01*
X102785Y144216D01*
X104284D01*
X75757Y118641D02*
X76256Y119141D01*
X77256D01*
X77756Y118641D01*
Y116642D01*
X77256Y116142D01*
X76256D01*
X75757Y116642D01*
X74757Y119141D02*
X72758D01*
Y118641D01*
X74757Y116642D01*
Y116142D01*
X118079Y109783D02*
X118579Y110283D01*
X119579D01*
X120079Y109783D01*
Y107783D01*
X119579Y107283D01*
X118579D01*
X118079Y107783D01*
X117080Y109783D02*
X116580Y110283D01*
X115580D01*
X115080Y109783D01*
Y109283D01*
X115580Y108783D01*
X115080Y108283D01*
Y107783D01*
X115580Y107283D01*
X116580D01*
X117080Y107783D01*
Y108283D01*
X116580Y108783D01*
X117080Y109283D01*
Y109783D01*
X116580Y108783D02*
X115580D01*
X75757Y109783D02*
X76256Y110283D01*
X77256D01*
X77756Y109783D01*
Y107783D01*
X77256Y107283D01*
X76256D01*
X75757Y107783D01*
X74757D02*
X74257Y107283D01*
X73257D01*
X72758Y107783D01*
Y109783D01*
X73257Y110283D01*
X74257D01*
X74757Y109783D01*
Y109283D01*
X74257Y108783D01*
X72758D01*
D33*
X100591Y140157D02*
X102165D01*
X100591Y135433D02*
X102165D01*
X84842Y120472D02*
X86417D01*
X84842Y115748D02*
X86417D01*
X100591Y107874D02*
X102165D01*
X100591Y112598D02*
X102165D01*
X84842Y112598D02*
X86417D01*
X84842Y107874D02*
X86417D01*
M02*
