%FSLAX25Y25*%
%MOIN*%
G70*
G01*
G75*
G04 Layer_Physical_Order=2*
G04 Layer_Color=16711680*
%ADD10R,0.05512X0.03543*%
%ADD11R,0.03543X0.05512*%
%ADD12O,0.05512X0.01181*%
%ADD13O,0.01181X0.05512*%
%ADD14O,0.02362X0.05906*%
%ADD15R,0.02362X0.03937*%
%ADD16R,0.01575X0.03347*%
%ADD17R,0.03150X0.05512*%
%ADD18R,0.05512X0.03150*%
%ADD19C,0.01000*%
%ADD20C,0.02000*%
%ADD21C,0.02500*%
%ADD22C,0.03937*%
%ADD23C,0.12598*%
%ADD24R,0.06000X0.06000*%
%ADD25C,0.06000*%
%ADD26O,0.05906X0.09843*%
G04:AMPARAMS|DCode=27|XSize=157.48mil|YSize=78.74mil|CornerRadius=19.69mil|HoleSize=0mil|Usage=FLASHONLY|Rotation=0.000|XOffset=0mil|YOffset=0mil|HoleType=Round|Shape=RoundedRectangle|*
%AMROUNDEDRECTD27*
21,1,0.15748,0.03937,0,0,0.0*
21,1,0.11811,0.07874,0,0,0.0*
1,1,0.03937,0.05906,-0.01969*
1,1,0.03937,-0.05906,-0.01969*
1,1,0.03937,-0.05906,0.01969*
1,1,0.03937,0.05906,0.01969*
%
%ADD27ROUNDEDRECTD27*%
%ADD28C,0.05906*%
%ADD29C,0.04000*%
G36*
X260000Y200000D02*
Y160000D01*
X270000Y150000D01*
Y15000D01*
X260000Y5000D01*
Y0D01*
X99079D01*
X98887Y462D01*
X104331Y5906D01*
Y13780D01*
X116142Y25591D01*
X159449D01*
Y25591D01*
X167323Y33465D01*
Y45256D01*
X167823Y45355D01*
X167824Y45351D01*
X168426Y44568D01*
X169210Y43966D01*
X170123Y43588D01*
X171102Y43459D01*
X172082Y43588D01*
X172995Y43966D01*
X173779Y44568D01*
X174380Y45351D01*
X174759Y46264D01*
X174888Y47244D01*
Y51181D01*
X174759Y52161D01*
X174380Y53074D01*
X173779Y53858D01*
X172995Y54459D01*
X172082Y54837D01*
X171102Y54966D01*
X170123Y54837D01*
X169210Y54459D01*
X168426Y53858D01*
X167824Y53074D01*
X167823Y53070D01*
X167323Y53170D01*
Y86614D01*
X210630D01*
Y153543D01*
X120079D01*
Y179134D01*
X0D01*
Y210000D01*
X250000D01*
X260000Y200000D01*
D02*
G37*
G36*
X208661Y88583D02*
X141732D01*
X137795Y92520D01*
Y92520D01*
Y112205D01*
X120079D01*
X112205Y120079D01*
Y127953D01*
X112205D01*
X120079Y135827D01*
Y151575D01*
X208661D01*
Y88583D01*
D02*
G37*
G36*
X118110Y137795D02*
X110236Y129921D01*
Y118110D01*
X118110Y110236D01*
X135827D01*
Y90551D01*
X139764Y86614D01*
X165354D01*
Y52552D01*
X164854Y52452D01*
X164555Y53175D01*
X163921Y54000D01*
X163096Y54634D01*
X162134Y55032D01*
X161602Y55102D01*
Y49213D01*
Y43323D01*
X162134Y43393D01*
X163096Y43791D01*
X163921Y44425D01*
X164555Y45251D01*
X164854Y45973D01*
X165354Y45874D01*
Y35433D01*
X165354D01*
X157480Y27559D01*
X114173D01*
X102362Y15748D01*
Y7874D01*
Y7874D01*
X94488Y0D01*
X0D01*
Y177165D01*
X118110D01*
Y137795D01*
D02*
G37*
%LPC*%
G36*
X112705Y97417D02*
Y94988D01*
X115133D01*
X115097Y95263D01*
X114798Y95985D01*
X114322Y96605D01*
X113702Y97081D01*
X112980Y97380D01*
X112705Y97417D01*
D02*
G37*
G36*
X111705D02*
X111430Y97380D01*
X110708Y97081D01*
X110088Y96605D01*
X109612Y95985D01*
X109313Y95263D01*
X109276Y94988D01*
X111705D01*
Y97417D01*
D02*
G37*
G36*
Y101862D02*
X109276D01*
X109313Y101587D01*
X109612Y100865D01*
X110088Y100245D01*
X110708Y99769D01*
X111430Y99470D01*
X111705Y99434D01*
Y101862D01*
D02*
G37*
G36*
X7874Y110084D02*
X6894Y109955D01*
X5982Y109577D01*
X5198Y108976D01*
X4596Y108192D01*
X4218Y107279D01*
X4089Y106299D01*
X4218Y105320D01*
X4596Y104407D01*
X5198Y103623D01*
X5982Y103021D01*
X6894Y102643D01*
X7874Y102514D01*
X8854Y102643D01*
X9767Y103021D01*
X10550Y103623D01*
X11152Y104407D01*
X11530Y105320D01*
X11659Y106299D01*
X11530Y107279D01*
X11152Y108192D01*
X10550Y108976D01*
X9767Y109577D01*
X8854Y109955D01*
X7874Y110084D01*
D02*
G37*
G36*
X43307Y120903D02*
X31496D01*
X30773Y120808D01*
X30100Y120528D01*
X29522Y120085D01*
X29078Y119506D01*
X28799Y118833D01*
X28704Y118110D01*
Y114173D01*
X28799Y113451D01*
X29078Y112777D01*
X29522Y112199D01*
X30100Y111755D01*
X30773Y111476D01*
X30799Y111473D01*
Y110968D01*
X30773Y110965D01*
X30100Y110686D01*
X29522Y110242D01*
X29078Y109664D01*
X28799Y108990D01*
X28704Y108268D01*
Y104331D01*
X28799Y103608D01*
X29078Y102935D01*
X29522Y102356D01*
X30100Y101912D01*
X30773Y101634D01*
X31496Y101538D01*
X43307D01*
X44030Y101634D01*
X44703Y101912D01*
X45282Y102356D01*
X45725Y102935D01*
X46004Y103608D01*
X46099Y104331D01*
Y108268D01*
X46004Y108990D01*
X45725Y109664D01*
X45282Y110242D01*
X44703Y110686D01*
X44030Y110965D01*
X44004Y110968D01*
Y111473D01*
X44030Y111476D01*
X44703Y111755D01*
X45282Y112199D01*
X45725Y112777D01*
X46004Y113451D01*
X46099Y114173D01*
Y118110D01*
X46004Y118833D01*
X45725Y119506D01*
X45282Y120085D01*
X44703Y120528D01*
X44030Y120808D01*
X43307Y120903D01*
D02*
G37*
G36*
X115133Y101862D02*
X112705D01*
Y99434D01*
X112980Y99470D01*
X113702Y99769D01*
X114322Y100245D01*
X114798Y100865D01*
X115097Y101587D01*
X115133Y101862D01*
D02*
G37*
G36*
Y93988D02*
X112705D01*
Y91560D01*
X112980Y91596D01*
X113702Y91895D01*
X114322Y92371D01*
X114798Y92991D01*
X115097Y93713D01*
X115133Y93988D01*
D02*
G37*
G36*
X124500Y90527D02*
X124225Y90491D01*
X123503Y90191D01*
X122883Y89716D01*
X122407Y89095D01*
X122108Y88373D01*
X122072Y88098D01*
X124500D01*
Y90527D01*
D02*
G37*
G36*
X127928Y87098D02*
X125500D01*
Y84670D01*
X125775Y84706D01*
X126497Y85005D01*
X127117Y85481D01*
X127593Y86101D01*
X127892Y86823D01*
X127928Y87098D01*
D02*
G37*
G36*
X124500D02*
X122072D01*
X122108Y86823D01*
X122407Y86101D01*
X122883Y85481D01*
X123503Y85005D01*
X124225Y84706D01*
X124500Y84670D01*
Y87098D01*
D02*
G37*
G36*
X111705Y93988D02*
X109276D01*
X109313Y93713D01*
X109612Y92991D01*
X110088Y92371D01*
X110708Y91895D01*
X111430Y91596D01*
X111705Y91560D01*
Y93988D01*
D02*
G37*
G36*
X102862Y54109D02*
Y51681D01*
X105290D01*
X105254Y51956D01*
X104955Y52678D01*
X104479Y53298D01*
X103859Y53774D01*
X103137Y54073D01*
X102862Y54109D01*
D02*
G37*
G36*
X125500Y90527D02*
Y88098D01*
X127928D01*
X127892Y88373D01*
X127593Y89095D01*
X127117Y89716D01*
X126497Y90191D01*
X125775Y90491D01*
X125500Y90527D01*
D02*
G37*
G36*
X17717Y110084D02*
X16737Y109955D01*
X15824Y109577D01*
X15040Y108976D01*
X14438Y108192D01*
X14060Y107279D01*
X13931Y106299D01*
X14060Y105320D01*
X14438Y104407D01*
X15040Y103623D01*
X15824Y103021D01*
X16737Y102643D01*
X17717Y102514D01*
X18696Y102643D01*
X19609Y103021D01*
X20393Y103623D01*
X20995Y104407D01*
X21373Y105320D01*
X21502Y106299D01*
X21373Y107279D01*
X20995Y108192D01*
X20393Y108976D01*
X19609Y109577D01*
X18696Y109955D01*
X17717Y110084D01*
D02*
G37*
G36*
X26616Y125484D02*
X18216D01*
Y121022D01*
X23622D01*
X24397Y121124D01*
X25119Y121423D01*
X25739Y121899D01*
X26215Y122519D01*
X26514Y123241D01*
X26616Y124016D01*
Y125484D01*
D02*
G37*
G36*
X37402Y129769D02*
X36422Y129640D01*
X35509Y129262D01*
X34725Y128661D01*
X34124Y127877D01*
X33745Y126964D01*
X33616Y125984D01*
X33745Y125005D01*
X34124Y124092D01*
X34725Y123308D01*
X35509Y122706D01*
X36422Y122328D01*
X37402Y122199D01*
X38381Y122328D01*
X39294Y122706D01*
X40078Y123308D01*
X40680Y124092D01*
X41058Y125005D01*
X41187Y125984D01*
X41058Y126964D01*
X40680Y127877D01*
X40078Y128661D01*
X39294Y129262D01*
X38381Y129640D01*
X37402Y129769D01*
D02*
G37*
G36*
X108243Y121547D02*
X105815D01*
Y119119D01*
X106090Y119155D01*
X106812Y119454D01*
X107432Y119930D01*
X107908Y120550D01*
X108207Y121272D01*
X108243Y121547D01*
D02*
G37*
G36*
X17217Y125484D02*
X8817D01*
Y124016D01*
X8919Y123241D01*
X9218Y122519D01*
X9694Y121899D01*
X10314Y121423D01*
X11036Y121124D01*
X11811Y121022D01*
X17217D01*
Y125484D01*
D02*
G37*
G36*
X55602D02*
X53174D01*
X53210Y125209D01*
X53509Y124487D01*
X53985Y123867D01*
X54605Y123391D01*
X55327Y123092D01*
X55602Y123056D01*
Y125484D01*
D02*
G37*
G36*
X59031D02*
X56602D01*
Y123056D01*
X56877Y123092D01*
X57599Y123391D01*
X58219Y123867D01*
X58695Y124487D01*
X58995Y125209D01*
X59031Y125484D01*
D02*
G37*
G36*
X104815Y124976D02*
X104540Y124939D01*
X103818Y124640D01*
X103198Y124164D01*
X102722Y123544D01*
X102423Y122822D01*
X102387Y122547D01*
X104815D01*
Y124976D01*
D02*
G37*
G36*
X105815D02*
Y122547D01*
X108243D01*
X108207Y122822D01*
X107908Y123544D01*
X107432Y124164D01*
X106812Y124640D01*
X106090Y124939D01*
X105815Y124976D01*
D02*
G37*
G36*
X105012Y109736D02*
X102740D01*
Y106480D01*
X105012D01*
Y109736D01*
D02*
G37*
G36*
X108283D02*
X106012D01*
Y106480D01*
X108283D01*
Y109736D01*
D02*
G37*
G36*
X111705Y105290D02*
X111430Y105254D01*
X110708Y104955D01*
X110088Y104479D01*
X109612Y103859D01*
X109313Y103137D01*
X109276Y102862D01*
X111705D01*
Y105290D01*
D02*
G37*
G36*
X112705D02*
Y102862D01*
X115133D01*
X115097Y103137D01*
X114798Y103859D01*
X114322Y104479D01*
X113702Y104955D01*
X112980Y105254D01*
X112705Y105290D01*
D02*
G37*
G36*
X92520Y141732D02*
X78740D01*
Y121866D01*
X78724D01*
Y114492D01*
X78724Y114354D01*
X78724Y114354D01*
Y113992D01*
X78724D01*
X78724Y113854D01*
Y106480D01*
X78740D01*
Y106299D01*
X88241D01*
Y104810D01*
X88171Y104780D01*
X87592Y104337D01*
X87149Y103758D01*
X86870Y103085D01*
X86774Y102362D01*
X86870Y101639D01*
X87149Y100966D01*
X87592Y100388D01*
X88171Y99944D01*
X88844Y99665D01*
X89567Y99570D01*
X90290Y99665D01*
X90963Y99944D01*
X91541Y100388D01*
X91985Y100966D01*
X92264Y101639D01*
X92359Y102362D01*
X92264Y103085D01*
X91985Y103758D01*
X91541Y104337D01*
X90963Y104780D01*
X90892Y104810D01*
Y106299D01*
X92520D01*
Y108911D01*
X94672D01*
Y106680D01*
X99816D01*
Y113792D01*
X94672D01*
Y111562D01*
X92520D01*
Y116785D01*
X95978D01*
X96007Y116714D01*
X96451Y116136D01*
X97029Y115692D01*
X97702Y115413D01*
X98425Y115318D01*
X99148Y115413D01*
X99821Y115692D01*
X100400Y116136D01*
X100844Y116714D01*
X101122Y117387D01*
X101218Y118110D01*
X101122Y118833D01*
X100844Y119506D01*
X100400Y120085D01*
X99821Y120528D01*
X99148Y120808D01*
X98425Y120903D01*
X97702Y120808D01*
X97029Y120528D01*
X96451Y120085D01*
X96007Y119506D01*
X95978Y119436D01*
X92520D01*
Y141732D01*
D02*
G37*
G36*
X104815Y121547D02*
X102387D01*
X102423Y121272D01*
X102722Y120550D01*
X103198Y119930D01*
X103818Y119454D01*
X104540Y119155D01*
X104815Y119119D01*
Y121547D01*
D02*
G37*
G36*
X105012Y113992D02*
X102740D01*
Y110736D01*
X105012D01*
Y113992D01*
D02*
G37*
G36*
X108283D02*
X106012D01*
Y110736D01*
X108283D01*
Y113992D01*
D02*
G37*
G36*
X210000Y13833D02*
X209008Y13702D01*
X208084Y13319D01*
X207290Y12710D01*
X206681Y11916D01*
X206298Y10992D01*
X206167Y10000D01*
X206298Y9008D01*
X206681Y8084D01*
X207290Y7290D01*
X208084Y6681D01*
X209008Y6298D01*
X210000Y6167D01*
X210992Y6298D01*
X211916Y6681D01*
X212710Y7290D01*
X213319Y8084D01*
X213702Y9008D01*
X213833Y10000D01*
X213702Y10992D01*
X213319Y11916D01*
X212710Y12710D01*
X211916Y13319D01*
X210992Y13702D01*
X210000Y13833D01*
D02*
G37*
G36*
X220000D02*
X219008Y13702D01*
X218084Y13319D01*
X217290Y12710D01*
X216681Y11916D01*
X216298Y10992D01*
X216167Y10000D01*
X216298Y9008D01*
X216681Y8084D01*
X217290Y7290D01*
X218084Y6681D01*
X219008Y6298D01*
X220000Y6167D01*
X220992Y6298D01*
X221916Y6681D01*
X222710Y7290D01*
X223319Y8084D01*
X223702Y9008D01*
X223833Y10000D01*
X223702Y10992D01*
X223319Y11916D01*
X222710Y12710D01*
X221916Y13319D01*
X220992Y13702D01*
X220000Y13833D01*
D02*
G37*
G36*
X140000D02*
X139008Y13702D01*
X138084Y13319D01*
X137290Y12710D01*
X136681Y11916D01*
X136298Y10992D01*
X136167Y10000D01*
X136298Y9008D01*
X136681Y8084D01*
X137290Y7290D01*
X138084Y6681D01*
X139008Y6298D01*
X140000Y6167D01*
X140992Y6298D01*
X141916Y6681D01*
X142710Y7290D01*
X143319Y8084D01*
X143702Y9008D01*
X143833Y10000D01*
X143702Y10992D01*
X143319Y11916D01*
X142710Y12710D01*
X141916Y13319D01*
X140992Y13702D01*
X140000Y13833D01*
D02*
G37*
G36*
X150000D02*
X149008Y13702D01*
X148084Y13319D01*
X147290Y12710D01*
X146681Y11916D01*
X146298Y10992D01*
X146167Y10000D01*
X146298Y9008D01*
X146681Y8084D01*
X147290Y7290D01*
X148084Y6681D01*
X149008Y6298D01*
X150000Y6167D01*
X150992Y6298D01*
X151916Y6681D01*
X152710Y7290D01*
X153319Y8084D01*
X153702Y9008D01*
X153833Y10000D01*
X153702Y10992D01*
X153319Y11916D01*
X152710Y12710D01*
X151916Y13319D01*
X150992Y13702D01*
X150000Y13833D01*
D02*
G37*
G36*
X250000D02*
X249008Y13702D01*
X248084Y13319D01*
X247290Y12710D01*
X246681Y11916D01*
X246298Y10992D01*
X246167Y10000D01*
X246298Y9008D01*
X246681Y8084D01*
X247290Y7290D01*
X248084Y6681D01*
X249008Y6298D01*
X250000Y6167D01*
X250992Y6298D01*
X251916Y6681D01*
X252710Y7290D01*
X253319Y8084D01*
X253702Y9008D01*
X253833Y10000D01*
X253702Y10992D01*
X253319Y11916D01*
X252710Y12710D01*
X251916Y13319D01*
X250992Y13702D01*
X250000Y13833D01*
D02*
G37*
G36*
X183800Y13800D02*
X176200D01*
Y6200D01*
X183800D01*
Y13800D01*
D02*
G37*
G36*
X230000Y13833D02*
X229008Y13702D01*
X228084Y13319D01*
X227290Y12710D01*
X226681Y11916D01*
X226298Y10992D01*
X226167Y10000D01*
X226298Y9008D01*
X226681Y8084D01*
X227290Y7290D01*
X228084Y6681D01*
X229008Y6298D01*
X230000Y6167D01*
X230992Y6298D01*
X231916Y6681D01*
X232710Y7290D01*
X233319Y8084D01*
X233702Y9008D01*
X233833Y10000D01*
X233702Y10992D01*
X233319Y11916D01*
X232710Y12710D01*
X231916Y13319D01*
X230992Y13702D01*
X230000Y13833D01*
D02*
G37*
G36*
X240000D02*
X239008Y13702D01*
X238084Y13319D01*
X237290Y12710D01*
X236681Y11916D01*
X236298Y10992D01*
X236167Y10000D01*
X236298Y9008D01*
X236681Y8084D01*
X237290Y7290D01*
X238084Y6681D01*
X239008Y6298D01*
X240000Y6167D01*
X240992Y6298D01*
X241916Y6681D01*
X242710Y7290D01*
X243319Y8084D01*
X243702Y9008D01*
X243833Y10000D01*
X243702Y10992D01*
X243319Y11916D01*
X242710Y12710D01*
X241916Y13319D01*
X240992Y13702D01*
X240000Y13833D01*
D02*
G37*
G36*
X163969Y9500D02*
X160500D01*
Y6031D01*
X161044Y6103D01*
X162017Y6506D01*
X162853Y7147D01*
X163494Y7983D01*
X163897Y8956D01*
X163969Y9500D01*
D02*
G37*
G36*
X169500D02*
X166031D01*
X166103Y8956D01*
X166506Y7983D01*
X167147Y7147D01*
X167983Y6506D01*
X168956Y6103D01*
X169500Y6031D01*
Y9500D01*
D02*
G37*
G36*
X55000Y17134D02*
X53608Y16996D01*
X52270Y16590D01*
X51037Y15931D01*
X49956Y15044D01*
X49069Y13963D01*
X48409Y12730D01*
X48004Y11392D01*
X47866Y10000D01*
X48004Y8608D01*
X48409Y7270D01*
X49069Y6037D01*
X49956Y4956D01*
X51037Y4069D01*
X52270Y3409D01*
X53608Y3004D01*
X55000Y2866D01*
X56392Y3004D01*
X57730Y3409D01*
X58963Y4069D01*
X60044Y4956D01*
X60931Y6037D01*
X61590Y7270D01*
X61997Y8608D01*
X62134Y10000D01*
X61997Y11392D01*
X61590Y12730D01*
X60931Y13963D01*
X60044Y15044D01*
X58963Y15931D01*
X57730Y16590D01*
X56392Y16996D01*
X55000Y17134D01*
D02*
G37*
G36*
X159500Y9500D02*
X156031D01*
X156103Y8956D01*
X156506Y7983D01*
X157147Y7147D01*
X157983Y6506D01*
X158956Y6103D01*
X159500Y6031D01*
Y9500D01*
D02*
G37*
G36*
X120000Y13833D02*
X119008Y13702D01*
X118084Y13319D01*
X117290Y12710D01*
X116681Y11916D01*
X116298Y10992D01*
X116167Y10000D01*
X116298Y9008D01*
X116681Y8084D01*
X117290Y7290D01*
X118084Y6681D01*
X119008Y6298D01*
X120000Y6167D01*
X120992Y6298D01*
X121916Y6681D01*
X122710Y7290D01*
X123319Y8084D01*
X123702Y9008D01*
X123833Y10000D01*
X123702Y10992D01*
X123319Y11916D01*
X122710Y12710D01*
X121916Y13319D01*
X120992Y13702D01*
X120000Y13833D01*
D02*
G37*
G36*
X130000D02*
X129008Y13702D01*
X128084Y13319D01*
X127290Y12710D01*
X126681Y11916D01*
X126298Y10992D01*
X126167Y10000D01*
X126298Y9008D01*
X126681Y8084D01*
X127290Y7290D01*
X128084Y6681D01*
X129008Y6298D01*
X130000Y6167D01*
X130992Y6298D01*
X131916Y6681D01*
X132710Y7290D01*
X133319Y8084D01*
X133702Y9008D01*
X133833Y10000D01*
X133702Y10992D01*
X133319Y11916D01*
X132710Y12710D01*
X131916Y13319D01*
X130992Y13702D01*
X130000Y13833D01*
D02*
G37*
G36*
X173969Y9500D02*
X170500D01*
Y6031D01*
X171044Y6103D01*
X172017Y6506D01*
X172853Y7147D01*
X173494Y7983D01*
X173897Y8956D01*
X173969Y9500D01*
D02*
G37*
G36*
X110000Y13833D02*
X109008Y13702D01*
X108084Y13319D01*
X107290Y12710D01*
X106681Y11916D01*
X106298Y10992D01*
X106167Y10000D01*
X106298Y9008D01*
X106681Y8084D01*
X107290Y7290D01*
X108084Y6681D01*
X109008Y6298D01*
X110000Y6167D01*
X110992Y6298D01*
X111916Y6681D01*
X112710Y7290D01*
X113319Y8084D01*
X113702Y9008D01*
X113833Y10000D01*
X113702Y10992D01*
X113319Y11916D01*
X112710Y12710D01*
X111916Y13319D01*
X110992Y13702D01*
X110000Y13833D01*
D02*
G37*
G36*
X101862Y50681D02*
X99434D01*
X99470Y50406D01*
X99769Y49684D01*
X100245Y49064D01*
X100865Y48588D01*
X101587Y48289D01*
X101862Y48253D01*
Y50681D01*
D02*
G37*
G36*
X105290D02*
X102862D01*
Y48253D01*
X103137Y48289D01*
X103859Y48588D01*
X104479Y49064D01*
X104955Y49684D01*
X105254Y50406D01*
X105290Y50681D01*
D02*
G37*
G36*
X185089Y48713D02*
X181602D01*
Y43323D01*
X182134Y43393D01*
X183096Y43791D01*
X183922Y44425D01*
X184555Y45251D01*
X184953Y46212D01*
X185089Y47244D01*
Y48713D01*
D02*
G37*
G36*
X151102Y54966D02*
X150123Y54837D01*
X149210Y54459D01*
X148426Y53858D01*
X147824Y53074D01*
X147446Y52161D01*
X147317Y51181D01*
Y47244D01*
X147446Y46264D01*
X147824Y45351D01*
X148426Y44568D01*
X149210Y43966D01*
X150123Y43588D01*
X151102Y43459D01*
X152082Y43588D01*
X152995Y43966D01*
X153779Y44568D01*
X154380Y45351D01*
X154759Y46264D01*
X154887Y47244D01*
Y51181D01*
X154759Y52161D01*
X154380Y53074D01*
X153779Y53858D01*
X152995Y54459D01*
X152082Y54837D01*
X151102Y54966D01*
D02*
G37*
G36*
X181602Y55102D02*
Y49713D01*
X185089D01*
Y51181D01*
X184953Y52213D01*
X184555Y53175D01*
X183922Y54000D01*
X183096Y54634D01*
X182134Y55032D01*
X181602Y55102D01*
D02*
G37*
G36*
X101862Y54109D02*
X101587Y54073D01*
X100865Y53774D01*
X100245Y53298D01*
X99769Y52678D01*
X99470Y51956D01*
X99434Y51681D01*
X101862D01*
Y54109D01*
D02*
G37*
G36*
X160602Y55102D02*
X160071Y55032D01*
X159109Y54634D01*
X158283Y54000D01*
X157650Y53175D01*
X157251Y52213D01*
X157115Y51181D01*
Y49713D01*
X160602D01*
Y55102D01*
D02*
G37*
G36*
X180602D02*
X180070Y55032D01*
X179109Y54634D01*
X178283Y54000D01*
X177650Y53175D01*
X177251Y52213D01*
X177115Y51181D01*
Y49713D01*
X180602D01*
Y55102D01*
D02*
G37*
G36*
X160500Y13969D02*
Y10500D01*
X163969D01*
X163897Y11044D01*
X163494Y12017D01*
X162853Y12853D01*
X162017Y13494D01*
X161044Y13897D01*
X160500Y13969D01*
D02*
G37*
G36*
X169500D02*
X168956Y13897D01*
X167983Y13494D01*
X167147Y12853D01*
X166506Y12017D01*
X166103Y11044D01*
X166031Y10500D01*
X169500D01*
Y13969D01*
D02*
G37*
G36*
X203800Y13800D02*
X196200D01*
Y6200D01*
X203800D01*
Y13800D01*
D02*
G37*
G36*
X159500Y13969D02*
X158956Y13897D01*
X157983Y13494D01*
X157147Y12853D01*
X156506Y12017D01*
X156103Y11044D01*
X156031Y10500D01*
X159500D01*
Y13969D01*
D02*
G37*
G36*
X160602Y48713D02*
X157115D01*
Y47244D01*
X157251Y46212D01*
X157650Y45251D01*
X158283Y44425D01*
X159109Y43791D01*
X160071Y43393D01*
X160602Y43323D01*
Y48713D01*
D02*
G37*
G36*
X180602D02*
X177115D01*
Y47244D01*
X177251Y46212D01*
X177650Y45251D01*
X178283Y44425D01*
X179109Y43791D01*
X180070Y43393D01*
X180602Y43323D01*
Y48713D01*
D02*
G37*
G36*
X170500Y13969D02*
Y10500D01*
X173969D01*
X173897Y11044D01*
X173494Y12017D01*
X172853Y12853D01*
X172017Y13494D01*
X171044Y13897D01*
X170500Y13969D01*
D02*
G37*
G36*
X260000Y37134D02*
X258608Y36996D01*
X257270Y36591D01*
X256037Y35931D01*
X254956Y35044D01*
X254069Y33963D01*
X253410Y32730D01*
X253004Y31392D01*
X252866Y30000D01*
X253004Y28608D01*
X253410Y27270D01*
X254069Y26037D01*
X254956Y24956D01*
X256037Y24069D01*
X257270Y23410D01*
X258608Y23004D01*
X260000Y22866D01*
X261392Y23004D01*
X262730Y23410D01*
X263963Y24069D01*
X265044Y24956D01*
X265931Y26037D01*
X266590Y27270D01*
X266997Y28608D01*
X267134Y30000D01*
X266997Y31392D01*
X266590Y32730D01*
X265931Y33963D01*
X265044Y35044D01*
X263963Y35931D01*
X262730Y36591D01*
X261392Y36996D01*
X260000Y37134D01*
D02*
G37*
G36*
X17217Y130947D02*
X11811D01*
X11036Y130845D01*
X10314Y130546D01*
X9694Y130070D01*
X9218Y129450D01*
X8919Y128728D01*
X8817Y127953D01*
Y126484D01*
X17217D01*
Y130947D01*
D02*
G37*
G36*
X60000Y207134D02*
X58608Y206996D01*
X57270Y206591D01*
X56037Y205931D01*
X54956Y205044D01*
X54069Y203963D01*
X53409Y202730D01*
X53004Y201392D01*
X52866Y200000D01*
X53004Y198608D01*
X53409Y197270D01*
X54069Y196037D01*
X54956Y194956D01*
X56037Y194069D01*
X57270Y193409D01*
X58608Y193003D01*
X60000Y192866D01*
X61392Y193003D01*
X62730Y193409D01*
X63963Y194069D01*
X65044Y194956D01*
X65931Y196037D01*
X66590Y197270D01*
X66997Y198608D01*
X67134Y200000D01*
X66997Y201392D01*
X66590Y202730D01*
X65931Y203963D01*
X65044Y205044D01*
X63963Y205931D01*
X62730Y206591D01*
X61392Y206996D01*
X60000Y207134D01*
D02*
G37*
G36*
X114000Y203833D02*
X113008Y203702D01*
X112084Y203319D01*
X111290Y202710D01*
X110681Y201916D01*
X110298Y200992D01*
X110167Y200000D01*
X110298Y199008D01*
X110681Y198084D01*
X111290Y197290D01*
X112084Y196681D01*
X112165Y196647D01*
Y193087D01*
X112281Y192501D01*
X112304Y192384D01*
X112702Y191789D01*
X119926Y184565D01*
X120521Y184168D01*
X120638Y184144D01*
X121223Y184028D01*
X175084D01*
X175191Y183889D01*
X175769Y183445D01*
X176443Y183166D01*
X177165Y183071D01*
X177888Y183166D01*
X178561Y183445D01*
X179140Y183889D01*
X179584Y184467D01*
X179863Y185141D01*
X179958Y185863D01*
X179863Y186586D01*
X179584Y187259D01*
X179140Y187838D01*
X178561Y188282D01*
X177888Y188560D01*
X177165Y188656D01*
X176443Y188560D01*
X175769Y188282D01*
X175191Y187838D01*
X175084Y187698D01*
X162784D01*
X162751Y188198D01*
X163124Y188248D01*
X163798Y188527D01*
X164376Y188970D01*
X164820Y189549D01*
X165099Y190222D01*
X165194Y190945D01*
X165099Y191668D01*
X164820Y192341D01*
X164376Y192919D01*
X163798Y193363D01*
X163124Y193642D01*
X162402Y193737D01*
X161679Y193642D01*
X161005Y193363D01*
X160427Y192919D01*
X160320Y192780D01*
X126097D01*
X125990Y192919D01*
X125412Y193363D01*
X124739Y193642D01*
X124016Y193737D01*
X123293Y193642D01*
X122620Y193363D01*
X122041Y192919D01*
X121598Y192341D01*
X121318Y191668D01*
X121223Y190945D01*
X121318Y190222D01*
X121598Y189549D01*
X122041Y188970D01*
X122620Y188527D01*
X123293Y188248D01*
X123666Y188198D01*
X123633Y187698D01*
X121984D01*
X115835Y193847D01*
Y196647D01*
X115916Y196681D01*
X116710Y197290D01*
X117319Y198084D01*
X117702Y199008D01*
X117833Y200000D01*
X117702Y200992D01*
X117319Y201916D01*
X116710Y202710D01*
X115916Y203319D01*
X114992Y203702D01*
X114000Y203833D01*
D02*
G37*
G36*
X111721Y166314D02*
Y163886D01*
X114149D01*
X114113Y164161D01*
X113813Y164883D01*
X113338Y165503D01*
X112717Y165979D01*
X111995Y166278D01*
X111721Y166314D01*
D02*
G37*
G36*
X103500Y199500D02*
X100031D01*
X100103Y198956D01*
X100506Y197983D01*
X101147Y197147D01*
X101983Y196506D01*
X102956Y196103D01*
X103500Y196031D01*
Y199500D01*
D02*
G37*
G36*
X84000Y203833D02*
X83008Y203702D01*
X82084Y203319D01*
X81290Y202710D01*
X80681Y201916D01*
X80298Y200992D01*
X80167Y200000D01*
X80298Y199008D01*
X80681Y198084D01*
X81290Y197290D01*
X82084Y196681D01*
X83008Y196298D01*
X84000Y196167D01*
X84992Y196298D01*
X85916Y196681D01*
X86710Y197290D01*
X87319Y198084D01*
X87702Y199008D01*
X87833Y200000D01*
X87702Y200992D01*
X87319Y201916D01*
X86710Y202710D01*
X85916Y203319D01*
X84992Y203702D01*
X84000Y203833D01*
D02*
G37*
G36*
X74000D02*
X73008Y203702D01*
X72084Y203319D01*
X71290Y202710D01*
X70681Y201916D01*
X70298Y200992D01*
X70167Y200000D01*
X70298Y199008D01*
X70681Y198084D01*
X71290Y197290D01*
X72084Y196681D01*
X73008Y196298D01*
X74000Y196167D01*
X74992Y196298D01*
X75916Y196681D01*
X76710Y197290D01*
X77319Y198084D01*
X77702Y199008D01*
X77833Y200000D01*
X77702Y200992D01*
X77319Y201916D01*
X76710Y202710D01*
X75916Y203319D01*
X74992Y203702D01*
X74000Y203833D01*
D02*
G37*
G36*
X107969Y199500D02*
X104500D01*
Y196031D01*
X105044Y196103D01*
X106017Y196506D01*
X106853Y197147D01*
X107494Y197983D01*
X107897Y198956D01*
X107969Y199500D01*
D02*
G37*
G36*
X110721Y166314D02*
X110445Y166278D01*
X109723Y165979D01*
X109103Y165503D01*
X108627Y164883D01*
X108328Y164161D01*
X108292Y163886D01*
X110721D01*
Y166314D01*
D02*
G37*
G36*
X201287Y163361D02*
Y160933D01*
X203716D01*
X203679Y161208D01*
X203380Y161930D01*
X202905Y162550D01*
X202285Y163026D01*
X201562Y163325D01*
X201287Y163361D01*
D02*
G37*
G36*
X200287D02*
X200012Y163325D01*
X199290Y163026D01*
X198670Y162550D01*
X198194Y161930D01*
X197895Y161208D01*
X197859Y160933D01*
X200287D01*
Y163361D01*
D02*
G37*
G36*
X114149Y162886D02*
X111721D01*
Y160458D01*
X111995Y160494D01*
X112717Y160793D01*
X113338Y161269D01*
X113813Y161889D01*
X114113Y162611D01*
X114149Y162886D01*
D02*
G37*
G36*
X133358Y164346D02*
X133083Y164309D01*
X132361Y164010D01*
X131741Y163534D01*
X131265Y162914D01*
X130966Y162192D01*
X130930Y161917D01*
X133358D01*
Y164346D01*
D02*
G37*
G36*
X94004Y166314D02*
Y163886D01*
X96432D01*
X96396Y164161D01*
X96097Y164883D01*
X95621Y165503D01*
X95001Y165979D01*
X94279Y166278D01*
X94004Y166314D01*
D02*
G37*
G36*
X93004D02*
X92729Y166278D01*
X92007Y165979D01*
X91387Y165503D01*
X90911Y164883D01*
X90612Y164161D01*
X90576Y163886D01*
X93004D01*
Y166314D01*
D02*
G37*
G36*
X134358Y164346D02*
Y161917D01*
X136787D01*
X136750Y162192D01*
X136451Y162914D01*
X135975Y163534D01*
X135355Y164010D01*
X134633Y164309D01*
X134358Y164346D01*
D02*
G37*
G36*
X94000Y203833D02*
X93008Y203702D01*
X92084Y203319D01*
X91290Y202710D01*
X90681Y201916D01*
X90298Y200992D01*
X90167Y200000D01*
X90298Y199008D01*
X90681Y198084D01*
X91290Y197290D01*
X92084Y196681D01*
X93008Y196298D01*
X94000Y196167D01*
X94992Y196298D01*
X95916Y196681D01*
X96710Y197290D01*
X97319Y198084D01*
X97702Y199008D01*
X97833Y200000D01*
X97702Y200992D01*
X97319Y201916D01*
X96710Y202710D01*
X95916Y203319D01*
X94992Y203702D01*
X94000Y203833D01*
D02*
G37*
G36*
X240000D02*
X239008Y203702D01*
X238084Y203319D01*
X237290Y202710D01*
X236681Y201916D01*
X236298Y200992D01*
X236167Y200000D01*
X236298Y199008D01*
X236681Y198084D01*
X237290Y197290D01*
X238084Y196681D01*
X239008Y196298D01*
X240000Y196167D01*
X240992Y196298D01*
X241916Y196681D01*
X242710Y197290D01*
X243319Y198084D01*
X243702Y199008D01*
X243833Y200000D01*
X243702Y200992D01*
X243319Y201916D01*
X242710Y202710D01*
X241916Y203319D01*
X240992Y203702D01*
X240000Y203833D01*
D02*
G37*
G36*
X230000D02*
X229008Y203702D01*
X228084Y203319D01*
X227290Y202710D01*
X226681Y201916D01*
X226298Y200992D01*
X226167Y200000D01*
X226298Y199008D01*
X226331Y198927D01*
X198531Y171127D01*
X174751D01*
X174505Y171627D01*
X174662Y171832D01*
X174941Y172506D01*
X175037Y173228D01*
X174941Y173951D01*
X174662Y174625D01*
X174219Y175203D01*
X173640Y175647D01*
X172967Y175926D01*
X172244Y176021D01*
X171521Y175926D01*
X170848Y175647D01*
X170270Y175203D01*
X170163Y175064D01*
X168414D01*
X168314Y175564D01*
X168719Y175731D01*
X169297Y176175D01*
X169741Y176753D01*
X170020Y177427D01*
X170115Y178150D01*
X170020Y178872D01*
X169741Y179546D01*
X169297Y180124D01*
X168719Y180568D01*
X168046Y180847D01*
X167323Y180942D01*
X166600Y180847D01*
X165927Y180568D01*
X165348Y180124D01*
X165242Y179985D01*
X145782D01*
X145675Y180124D01*
X145097Y180568D01*
X144423Y180847D01*
X143701Y180942D01*
X142978Y180847D01*
X142305Y180568D01*
X141726Y180124D01*
X141282Y179546D01*
X141004Y178872D01*
X140908Y178150D01*
X141004Y177427D01*
X141282Y176753D01*
X141726Y176175D01*
X142305Y175731D01*
X142710Y175564D01*
X142610Y175064D01*
X135940D01*
X135833Y175203D01*
X135255Y175647D01*
X134581Y175926D01*
X133858Y176021D01*
X133135Y175926D01*
X132462Y175647D01*
X131884Y175203D01*
X131440Y174625D01*
X131161Y173951D01*
X131066Y173228D01*
X131161Y172506D01*
X131440Y171832D01*
X131884Y171254D01*
X132462Y170810D01*
X133135Y170531D01*
X133858Y170436D01*
X134581Y170531D01*
X135255Y170810D01*
X135833Y171254D01*
X135940Y171393D01*
X154973D01*
X155220Y170893D01*
X155062Y170687D01*
X154783Y170014D01*
X154688Y169291D01*
X154783Y168569D01*
X155062Y167895D01*
X155506Y167317D01*
X156084Y166873D01*
X156758Y166594D01*
X157480Y166499D01*
X158203Y166594D01*
X158877Y166873D01*
X159455Y167317D01*
X159562Y167456D01*
X199291D01*
X199877Y167573D01*
X199994Y167596D01*
X200589Y167994D01*
X228927Y196331D01*
X229008Y196298D01*
X230000Y196167D01*
X230992Y196298D01*
X231916Y196681D01*
X232710Y197290D01*
X233319Y198084D01*
X233702Y199008D01*
X233833Y200000D01*
X233702Y200992D01*
X233319Y201916D01*
X232710Y202710D01*
X231916Y203319D01*
X230992Y203702D01*
X230000Y203833D01*
D02*
G37*
G36*
X220000D02*
X219008Y203702D01*
X218084Y203319D01*
X217290Y202710D01*
X216681Y201916D01*
X216298Y200992D01*
X216167Y200000D01*
X216298Y199008D01*
X216681Y198084D01*
X217290Y197290D01*
X218084Y196681D01*
X219008Y196298D01*
X220000Y196167D01*
X220992Y196298D01*
X221916Y196681D01*
X222710Y197290D01*
X223319Y198084D01*
X223702Y199008D01*
X223833Y200000D01*
X223702Y200992D01*
X223319Y201916D01*
X222710Y202710D01*
X221916Y203319D01*
X220992Y203702D01*
X220000Y203833D01*
D02*
G37*
G36*
X167800Y203800D02*
X160200D01*
Y196200D01*
X167800D01*
Y203800D01*
D02*
G37*
G36*
X104500Y203969D02*
Y200500D01*
X107969D01*
X107897Y201044D01*
X107494Y202017D01*
X106853Y202853D01*
X106017Y203494D01*
X105044Y203897D01*
X104500Y203969D01*
D02*
G37*
G36*
X103500D02*
X102956Y203897D01*
X101983Y203494D01*
X101147Y202853D01*
X100506Y202017D01*
X100103Y201044D01*
X100031Y200500D01*
X103500D01*
Y203969D01*
D02*
G37*
G36*
X253800Y203800D02*
X246200D01*
Y196200D01*
X253800D01*
Y203800D01*
D02*
G37*
G36*
X210000Y203833D02*
X209008Y203702D01*
X208084Y203319D01*
X207290Y202710D01*
X206681Y201916D01*
X206298Y200992D01*
X206167Y200000D01*
X206298Y199008D01*
X206681Y198084D01*
X207290Y197290D01*
X208084Y196681D01*
X209008Y196298D01*
X210000Y196167D01*
X210992Y196298D01*
X211916Y196681D01*
X212710Y197290D01*
X213319Y198084D01*
X213702Y199008D01*
X213833Y200000D01*
X213702Y200992D01*
X213319Y201916D01*
X212710Y202710D01*
X211916Y203319D01*
X210992Y203702D01*
X210000Y203833D01*
D02*
G37*
G36*
X144000D02*
X143008Y203702D01*
X142084Y203319D01*
X141290Y202710D01*
X140681Y201916D01*
X140298Y200992D01*
X140167Y200000D01*
X140298Y199008D01*
X140681Y198084D01*
X141290Y197290D01*
X142084Y196681D01*
X143008Y196298D01*
X144000Y196167D01*
X144992Y196298D01*
X145916Y196681D01*
X146710Y197290D01*
X147319Y198084D01*
X147702Y199008D01*
X147833Y200000D01*
X147702Y200992D01*
X147319Y201916D01*
X146710Y202710D01*
X145916Y203319D01*
X144992Y203702D01*
X144000Y203833D01*
D02*
G37*
G36*
X134000D02*
X133008Y203702D01*
X132084Y203319D01*
X131290Y202710D01*
X130681Y201916D01*
X130298Y200992D01*
X130167Y200000D01*
X130298Y199008D01*
X130681Y198084D01*
X131290Y197290D01*
X132084Y196681D01*
X133008Y196298D01*
X134000Y196167D01*
X134992Y196298D01*
X135916Y196681D01*
X136710Y197290D01*
X137319Y198084D01*
X137702Y199008D01*
X137833Y200000D01*
X137702Y200992D01*
X137319Y201916D01*
X136710Y202710D01*
X135916Y203319D01*
X134992Y203702D01*
X134000Y203833D01*
D02*
G37*
G36*
X124000D02*
X123008Y203702D01*
X122084Y203319D01*
X121290Y202710D01*
X120681Y201916D01*
X120298Y200992D01*
X120167Y200000D01*
X120298Y199008D01*
X120681Y198084D01*
X121290Y197290D01*
X122084Y196681D01*
X123008Y196298D01*
X124000Y196167D01*
X124992Y196298D01*
X125916Y196681D01*
X126710Y197290D01*
X127319Y198084D01*
X127702Y199008D01*
X127833Y200000D01*
X127702Y200992D01*
X127319Y201916D01*
X126710Y202710D01*
X125916Y203319D01*
X124992Y203702D01*
X124000Y203833D01*
D02*
G37*
G36*
X154000D02*
X153008Y203702D01*
X152084Y203319D01*
X151290Y202710D01*
X150681Y201916D01*
X150298Y200992D01*
X150167Y200000D01*
X150298Y199008D01*
X150681Y198084D01*
X151290Y197290D01*
X152084Y196681D01*
X153008Y196298D01*
X154000Y196167D01*
X154992Y196298D01*
X155916Y196681D01*
X156710Y197290D01*
X157319Y198084D01*
X157702Y199008D01*
X157833Y200000D01*
X157702Y200992D01*
X157319Y201916D01*
X156710Y202710D01*
X155916Y203319D01*
X154992Y203702D01*
X154000Y203833D01*
D02*
G37*
G36*
X200000D02*
X199008Y203702D01*
X198084Y203319D01*
X197290Y202710D01*
X196681Y201916D01*
X196298Y200992D01*
X196167Y200000D01*
X196298Y199008D01*
X196681Y198084D01*
X197290Y197290D01*
X198084Y196681D01*
X199008Y196298D01*
X200000Y196167D01*
X200992Y196298D01*
X201916Y196681D01*
X202710Y197290D01*
X203319Y198084D01*
X203702Y199008D01*
X203833Y200000D01*
X203702Y200992D01*
X203319Y201916D01*
X202710Y202710D01*
X201916Y203319D01*
X200992Y203702D01*
X200000Y203833D01*
D02*
G37*
G36*
X190000D02*
X189008Y203702D01*
X188084Y203319D01*
X187290Y202710D01*
X186681Y201916D01*
X186298Y200992D01*
X186167Y200000D01*
X186298Y199008D01*
X186681Y198084D01*
X187290Y197290D01*
X188084Y196681D01*
X189008Y196298D01*
X190000Y196167D01*
X190992Y196298D01*
X191916Y196681D01*
X192710Y197290D01*
X193319Y198084D01*
X193702Y199008D01*
X193833Y200000D01*
X193702Y200992D01*
X193319Y201916D01*
X192710Y202710D01*
X191916Y203319D01*
X190992Y203702D01*
X190000Y203833D01*
D02*
G37*
G36*
X180000D02*
X179008Y203702D01*
X178084Y203319D01*
X177290Y202710D01*
X176681Y201916D01*
X176298Y200992D01*
X176167Y200000D01*
X176298Y199008D01*
X176681Y198084D01*
X177290Y197290D01*
X178084Y196681D01*
X179008Y196298D01*
X180000Y196167D01*
X180992Y196298D01*
X181916Y196681D01*
X182710Y197290D01*
X183319Y198084D01*
X183702Y199008D01*
X183833Y200000D01*
X183702Y200992D01*
X183319Y201916D01*
X182710Y202710D01*
X181916Y203319D01*
X180992Y203702D01*
X180000Y203833D01*
D02*
G37*
G36*
X110721Y162886D02*
X108292D01*
X108328Y162611D01*
X108627Y161889D01*
X109103Y161269D01*
X109723Y160793D01*
X110445Y160494D01*
X110721Y160458D01*
Y162886D01*
D02*
G37*
G36*
X260000Y147134D02*
X258608Y146996D01*
X257270Y146591D01*
X256037Y145931D01*
X254956Y145044D01*
X254069Y143963D01*
X253410Y142730D01*
X253004Y141392D01*
X252866Y140000D01*
X253004Y138608D01*
X253410Y137270D01*
X254069Y136037D01*
X254956Y134956D01*
X256037Y134069D01*
X257270Y133409D01*
X258608Y133003D01*
X260000Y132866D01*
X261392Y133003D01*
X262730Y133409D01*
X263963Y134069D01*
X265044Y134956D01*
X265931Y136037D01*
X266590Y137270D01*
X266997Y138608D01*
X267134Y140000D01*
X266997Y141392D01*
X266590Y142730D01*
X265931Y143963D01*
X265044Y145044D01*
X263963Y145931D01*
X262730Y146591D01*
X261392Y146996D01*
X260000Y147134D01*
D02*
G37*
G36*
X96744Y137295D02*
X94472D01*
Y134039D01*
X96744D01*
Y137295D01*
D02*
G37*
G36*
X143201Y134818D02*
X142926Y134782D01*
X142204Y134483D01*
X141584Y134007D01*
X141108Y133387D01*
X140809Y132665D01*
X140772Y132390D01*
X143201D01*
Y134818D01*
D02*
G37*
G36*
X144201D02*
Y132390D01*
X146629D01*
X146593Y132665D01*
X146294Y133387D01*
X145818Y134007D01*
X145198Y134483D01*
X144476Y134782D01*
X144201Y134818D01*
D02*
G37*
G36*
X117102Y139264D02*
X114673D01*
Y136836D01*
X114948Y136872D01*
X115670Y137171D01*
X116290Y137647D01*
X116766Y138267D01*
X117065Y138989D01*
X117102Y139264D01*
D02*
G37*
G36*
X96744Y141551D02*
X94472D01*
Y138295D01*
X96744D01*
Y141551D01*
D02*
G37*
G36*
X100016Y137295D02*
X97744D01*
Y134039D01*
X100016D01*
Y137295D01*
D02*
G37*
G36*
X113673Y139264D02*
X111245D01*
X111281Y138989D01*
X111580Y138267D01*
X112056Y137647D01*
X112676Y137171D01*
X113398Y136872D01*
X113673Y136836D01*
Y139264D01*
D02*
G37*
G36*
X56602Y128913D02*
Y126484D01*
X59031D01*
X58995Y126759D01*
X58695Y127481D01*
X58219Y128101D01*
X57599Y128577D01*
X56877Y128876D01*
X56602Y128913D01*
D02*
G37*
G36*
X143201Y131390D02*
X140772D01*
X140809Y131115D01*
X141108Y130393D01*
X141584Y129773D01*
X142204Y129297D01*
X142926Y128998D01*
X143201Y128962D01*
Y131390D01*
D02*
G37*
G36*
X23622Y130947D02*
X18216D01*
Y126484D01*
X26616D01*
Y127953D01*
X26514Y128728D01*
X26215Y129450D01*
X25739Y130070D01*
X25119Y130546D01*
X24397Y130845D01*
X23622Y130947D01*
D02*
G37*
G36*
X55602Y128913D02*
X55327Y128876D01*
X54605Y128577D01*
X53985Y128101D01*
X53509Y127481D01*
X53210Y126759D01*
X53174Y126484D01*
X55602D01*
Y128913D01*
D02*
G37*
G36*
X108083Y141351D02*
X102940D01*
Y134239D01*
X104186D01*
Y132636D01*
X102171Y130621D01*
X102101Y130650D01*
X101378Y130745D01*
X100655Y130650D01*
X99982Y130371D01*
X99403Y129927D01*
X98960Y129349D01*
X98681Y128675D01*
X98586Y127953D01*
X98681Y127230D01*
X98960Y126557D01*
X99403Y125978D01*
X99982Y125534D01*
X100655Y125256D01*
X101378Y125160D01*
X102101Y125256D01*
X102774Y125534D01*
X103352Y125978D01*
X103796Y126557D01*
X104075Y127230D01*
X104170Y127953D01*
X104075Y128675D01*
X104046Y128746D01*
X106449Y131149D01*
X106736Y131579D01*
X106837Y132087D01*
Y134239D01*
X108083D01*
Y141351D01*
D02*
G37*
G36*
X43307Y150430D02*
X31496D01*
X30773Y150335D01*
X30100Y150056D01*
X29522Y149612D01*
X29078Y149034D01*
X28799Y148361D01*
X28704Y147638D01*
Y143701D01*
X28799Y142978D01*
X29078Y142305D01*
X29522Y141726D01*
X30100Y141282D01*
X30773Y141004D01*
X30799Y141000D01*
Y140496D01*
X30773Y140492D01*
X30100Y140214D01*
X29522Y139770D01*
X29078Y139191D01*
X28799Y138518D01*
X28704Y137795D01*
Y133858D01*
X28799Y133135D01*
X29078Y132462D01*
X29522Y131884D01*
X30100Y131440D01*
X30773Y131161D01*
X31496Y131066D01*
X43307D01*
X44030Y131161D01*
X44703Y131440D01*
X45282Y131884D01*
X45725Y132462D01*
X46004Y133135D01*
X46099Y133858D01*
Y137795D01*
X46004Y138518D01*
X45725Y139191D01*
X45282Y139770D01*
X44703Y140214D01*
X44030Y140492D01*
X44004Y140496D01*
Y141000D01*
X44030Y141004D01*
X44703Y141282D01*
X45282Y141726D01*
X45725Y142305D01*
X46004Y142978D01*
X46099Y143701D01*
Y147638D01*
X46004Y148361D01*
X45725Y149034D01*
X45282Y149612D01*
X44703Y150056D01*
X44030Y150335D01*
X43307Y150430D01*
D02*
G37*
G36*
X146629Y131390D02*
X144201D01*
Y128962D01*
X144476Y128998D01*
X145198Y129297D01*
X145818Y129773D01*
X146294Y130393D01*
X146593Y131115D01*
X146629Y131390D01*
D02*
G37*
G36*
X178150Y136168D02*
X168307D01*
X167800Y136067D01*
X167370Y135780D01*
X163309Y131719D01*
X162663Y131634D01*
X161990Y131355D01*
X161411Y130912D01*
X160968Y130333D01*
X160689Y129660D01*
X160593Y128937D01*
X160689Y128214D01*
X160968Y127541D01*
X161411Y126962D01*
X161990Y126519D01*
X162663Y126240D01*
X162689Y126236D01*
Y125732D01*
X162663Y125729D01*
X161990Y125450D01*
X161411Y125006D01*
X160968Y124428D01*
X160689Y123754D01*
X160593Y123031D01*
X160689Y122309D01*
X160968Y121635D01*
X161411Y121057D01*
X161990Y120613D01*
X162663Y120334D01*
X163386Y120239D01*
X164109Y120334D01*
X164782Y120613D01*
X165360Y121057D01*
X165804Y121635D01*
X166083Y122309D01*
X166178Y123031D01*
X166083Y123754D01*
X166054Y123825D01*
X170773Y128544D01*
X170848Y128487D01*
X171521Y128208D01*
X172244Y128113D01*
X172967Y128208D01*
X173640Y128487D01*
X174219Y128931D01*
X174662Y129509D01*
X174941Y130183D01*
X175037Y130905D01*
X174941Y131628D01*
X174662Y132302D01*
X174219Y132880D01*
X174040Y133017D01*
X174210Y133517D01*
X177031D01*
X177361Y133141D01*
X177326Y132874D01*
X177421Y132151D01*
X177700Y131478D01*
X178144Y130900D01*
X178722Y130456D01*
X179395Y130177D01*
X180118Y130082D01*
X180841Y130177D01*
X181514Y130456D01*
X182093Y130900D01*
X182536Y131478D01*
X182815Y132151D01*
X182911Y132874D01*
X182815Y133597D01*
X182536Y134270D01*
X182093Y134848D01*
X181514Y135292D01*
X180841Y135571D01*
X180118Y135666D01*
X179395Y135571D01*
X179325Y135542D01*
X179087Y135780D01*
X178657Y136067D01*
X178150Y136168D01*
D02*
G37*
G36*
X100016Y141551D02*
X97744D01*
Y138295D01*
X100016D01*
Y141551D01*
D02*
G37*
G36*
X200287Y159933D02*
X197859D01*
X197895Y159658D01*
X198194Y158936D01*
X198670Y158316D01*
X199290Y157840D01*
X200012Y157541D01*
X200287Y157505D01*
Y159933D01*
D02*
G37*
G36*
X203716D02*
X201287D01*
Y157505D01*
X201562Y157541D01*
X202285Y157840D01*
X202905Y158316D01*
X203380Y158936D01*
X203679Y159658D01*
X203716Y159933D01*
D02*
G37*
G36*
X200287Y148598D02*
X200012Y148561D01*
X199290Y148262D01*
X198670Y147786D01*
X198194Y147166D01*
X197895Y146444D01*
X197859Y146169D01*
X200287D01*
Y148598D01*
D02*
G37*
G36*
X201287D02*
Y146169D01*
X203716D01*
X203679Y146444D01*
X203380Y147166D01*
X202905Y147786D01*
X202285Y148262D01*
X201562Y148561D01*
X201287Y148598D01*
D02*
G37*
G36*
X93004Y162886D02*
X90576D01*
X90612Y162611D01*
X90911Y161889D01*
X91387Y161269D01*
X92007Y160793D01*
X92729Y160494D01*
X93004Y160458D01*
Y162886D01*
D02*
G37*
G36*
X96432D02*
X94004D01*
Y160458D01*
X94279Y160494D01*
X95001Y160793D01*
X95621Y161269D01*
X96097Y161889D01*
X96396Y162611D01*
X96432Y162886D01*
D02*
G37*
G36*
X133358Y160917D02*
X130930D01*
X130966Y160642D01*
X131265Y159920D01*
X131741Y159300D01*
X132361Y158824D01*
X133083Y158525D01*
X133358Y158489D01*
Y160917D01*
D02*
G37*
G36*
X136787D02*
X134358D01*
Y158489D01*
X134633Y158525D01*
X135355Y158824D01*
X135975Y159300D01*
X136451Y159920D01*
X136750Y160642D01*
X136787Y160917D01*
D02*
G37*
G36*
X114673Y142692D02*
Y140264D01*
X117102D01*
X117065Y140539D01*
X116766Y141261D01*
X116290Y141881D01*
X115670Y142357D01*
X114948Y142656D01*
X114673Y142692D01*
D02*
G37*
G36*
X17717Y149454D02*
X16737Y149325D01*
X15824Y148947D01*
X15040Y148346D01*
X14438Y147562D01*
X14060Y146649D01*
X13931Y145669D01*
X14060Y144690D01*
X14438Y143777D01*
X15040Y142993D01*
X15824Y142391D01*
X16737Y142013D01*
X17717Y141884D01*
X18696Y142013D01*
X19609Y142391D01*
X20393Y142993D01*
X20995Y143777D01*
X21373Y144690D01*
X21502Y145669D01*
X21373Y146649D01*
X20995Y147562D01*
X20393Y148346D01*
X19609Y148947D01*
X18696Y149325D01*
X17717Y149454D01*
D02*
G37*
G36*
X7874D02*
X6894Y149325D01*
X5982Y148947D01*
X5198Y148346D01*
X4596Y147562D01*
X4218Y146649D01*
X4089Y145669D01*
X4218Y144690D01*
X4596Y143777D01*
X5198Y142993D01*
X5982Y142391D01*
X6894Y142013D01*
X7874Y141884D01*
X8854Y142013D01*
X9767Y142391D01*
X10550Y142993D01*
X11152Y143777D01*
X11530Y144690D01*
X11659Y145669D01*
X11530Y146649D01*
X11152Y147562D01*
X10550Y148346D01*
X9767Y148947D01*
X8854Y149325D01*
X7874Y149454D01*
D02*
G37*
G36*
X203716Y145169D02*
X201287D01*
Y142741D01*
X201562Y142777D01*
X202285Y143076D01*
X202905Y143552D01*
X203380Y144172D01*
X203679Y144894D01*
X203716Y145169D01*
D02*
G37*
G36*
X113673Y142692D02*
X113398Y142656D01*
X112676Y142357D01*
X112056Y141881D01*
X111580Y141261D01*
X111281Y140539D01*
X111245Y140264D01*
X113673D01*
Y142692D01*
D02*
G37*
G36*
X200287Y145169D02*
X197859D01*
X197895Y144894D01*
X198194Y144172D01*
X198670Y143552D01*
X199290Y143076D01*
X200012Y142777D01*
X200287Y142741D01*
Y145169D01*
D02*
G37*
%LPD*%
G36*
X165348Y176175D02*
X165927Y175731D01*
X166332Y175564D01*
X166232Y175064D01*
X144791D01*
X144692Y175564D01*
X145097Y175731D01*
X145675Y176175D01*
X145782Y176314D01*
X165242D01*
X165348Y176175D01*
D02*
G37*
G36*
X160427Y188970D02*
X161005Y188527D01*
X161679Y188248D01*
X162052Y188198D01*
X162019Y187698D01*
X124398D01*
X124365Y188198D01*
X124739Y188248D01*
X125412Y188527D01*
X125990Y188970D01*
X126097Y189110D01*
X160320D01*
X160427Y188970D01*
D02*
G37*
D11*
X105512Y137795D02*
D03*
X97244D02*
D03*
X89764Y118110D02*
D03*
X81496D02*
D03*
X97244Y110236D02*
D03*
X105512D02*
D03*
X89764D02*
D03*
X81496D02*
D03*
D19*
X178150Y134843D02*
X180118Y132874D01*
X168307Y134843D02*
X178150D01*
X163386Y129921D02*
X168307Y134843D01*
X163386Y128937D02*
Y129921D01*
X171260Y130905D02*
X172244D01*
X163386Y123031D02*
X171260Y130905D01*
X105512Y110236D02*
Y121850D01*
X89567Y110039D02*
X89764Y110236D01*
X89567Y102362D02*
Y110039D01*
X89764Y110236D02*
X97244D01*
X96457Y111024D02*
X97244Y110236D01*
X89764Y118110D02*
X98425D01*
X105315Y122047D02*
X105512Y121850D01*
X101378Y127953D02*
X105512Y132087D01*
Y137795D01*
D20*
X199291Y169291D02*
X230000Y200000D01*
X157480Y169291D02*
X199291D01*
X81496Y110236D02*
Y118110D01*
X114000Y193087D02*
X121223Y185863D01*
X177165D01*
X114000Y193087D02*
Y200000D01*
X124016Y190945D02*
X162402D01*
X143701Y178150D02*
X167323D01*
X133858Y173228D02*
X172244D01*
D22*
X56102Y125984D02*
D03*
X125000Y87598D02*
D03*
X157480Y169291D02*
D03*
X200787Y160433D02*
D03*
X114173Y139764D02*
D03*
X177165Y185863D02*
D03*
X162402Y190945D02*
D03*
X124016D02*
D03*
X102362Y51181D02*
D03*
X143701Y178150D02*
D03*
X167323D02*
D03*
X133858Y173228D02*
D03*
X172244D02*
D03*
X180118Y132874D02*
D03*
X163386Y123031D02*
D03*
Y128937D02*
D03*
X172244Y130905D02*
D03*
X89567Y102362D02*
D03*
X133858Y161417D02*
D03*
X200787Y145669D02*
D03*
X143701Y131890D02*
D03*
X112205Y102362D02*
D03*
Y94488D02*
D03*
X98425Y118110D02*
D03*
X105315Y122047D02*
D03*
X111221Y163386D02*
D03*
X93504D02*
D03*
X101378Y127953D02*
D03*
D23*
X260000Y30000D02*
D03*
Y140000D02*
D03*
X55000Y10000D02*
D03*
X60000Y200000D02*
D03*
D24*
X164000D02*
D03*
X180000Y10000D02*
D03*
X250000Y200000D02*
D03*
X200000Y10000D02*
D03*
D25*
X154000Y200000D02*
D03*
X144000D02*
D03*
X134000D02*
D03*
X124000D02*
D03*
X114000D02*
D03*
X104000D02*
D03*
X94000D02*
D03*
X84000D02*
D03*
X74000D02*
D03*
X150000Y10000D02*
D03*
X140000D02*
D03*
X130000D02*
D03*
X120000D02*
D03*
X110000D02*
D03*
X170000D02*
D03*
X160000D02*
D03*
X220000Y200000D02*
D03*
X210000D02*
D03*
X200000D02*
D03*
X190000D02*
D03*
X180000D02*
D03*
X240000D02*
D03*
X230000D02*
D03*
X210000Y10000D02*
D03*
X220000D02*
D03*
X230000D02*
D03*
X240000D02*
D03*
X250000D02*
D03*
D26*
X181102Y49213D02*
D03*
X171102D02*
D03*
X161102D02*
D03*
X151102D02*
D03*
D27*
X37402Y145669D02*
D03*
Y135827D02*
D03*
Y106299D02*
D03*
Y116142D02*
D03*
X17717Y125984D02*
D03*
D28*
X7874Y106299D02*
D03*
X17717D02*
D03*
X7874Y145669D02*
D03*
X17717D02*
D03*
X37402Y125984D02*
D03*
D29*
X105315Y122047D02*
X115157D01*
M02*
