M48
;Layer_Color=9474304
;FILE_FORMAT=2:4
INCH,TZ
;TYPE=PLATED
T1F00S00C0.0197
T2F00S00C0.0300
T3F00S00C0.0394
T4F00S00C0.0591
T5F00S00C0.1260
%
T01
X20079Y14567
Y16043
X17224Y17323
X16732Y17815
X17717Y18586
X15748Y16929
X14370Y17815
X13386Y17323
Y16142
X11122Y16339
X9350
X10138Y12795
X10532Y12205
X9843Y11811
X8957Y10236
X11220
Y9449
X12500Y8760
X10236Y5118
X11417Y13976
X14370Y13189
X16339Y12894
Y12303
X17224Y13091
X18012Y13287
X5610Y12598
X12402Y19094
X16240
T02
X11000Y1000
X12000
X13000
X14000
X15000
X16000
X17000
X18000
X20000
X21000
X22000
X23000
X24000
X25000
X19000Y20000
X18000
X16400
X15400
X14400
X13400
X12400
X11400
X10400
X9400
X8400
X7400
X20000
X21000
X22000
X23000
X24000
X25000
T03
X15110Y4921
X16110
X17110
X18110
T04
X3740Y10630
Y11614
Y13583
Y14567
X1772Y12598
T05
X5500Y1000
X26000Y3000
Y14000
X6000Y20000
M30
